<?xml version="1.0" standalone="no"?>
<!DOCTYPE svg PUBLIC "-//W3C//DTD SVG 20010904//EN"
 "http://www.w3.org/TR/2001/REC-SVG-20010904/DTD/svg10.dtd">
<svg version="1.0" xmlns="http://www.w3.org/2000/svg"
 width="1024.000000pt" height="1024.000000pt" viewBox="0 0 1024.000000 1024.000000"
 preserveAspectRatio="xMidYMid meet">

<g transform="translate(0.000000,1024.000000) scale(0.100000,-0.100000)"
fill="#000000" stroke="none">
<path d="M4236 9785 c14 -60 86 -252 130 -345 79 -166 243 -448 266 -458 5 -2
8 -10 8 -17 0 -8 8 -20 19 -27 10 -7 18 -17 17 -23 0 -5 13 -12 29 -14 24 -3
26 -5 11 -10 -16 -6 -17 -9 -4 -22 8 -8 17 -22 21 -31 3 -10 14 -18 23 -18 10
0 14 -5 11 -14 -4 -9 2 -17 14 -21 10 -4 19 -14 19 -23 1 -28 36 -63 56 -55
16 6 16 7 -2 20 -10 7 -12 13 -5 13 7 0 9 4 6 10 -3 6 1 7 9 4 17 -7 16 -27
-2 -61 -10 -19 -9 -23 8 -28 11 -4 18 -10 16 -13 -2 -4 2 -16 10 -27 8 -10 14
-16 14 -12 0 5 6 2 14 -5 8 -7 12 -16 9 -20 -2 -5 5 -8 17 -8 16 0 20 -4 15
-19 -5 -17 5 -28 29 -29 5 0 12 -6 17 -13 9 -15 49 -23 49 -10 0 6 -4 13 -10
16 -5 3 -10 10 -10 16 0 5 5 9 10 9 6 0 10 -7 10 -16 0 -13 3 -14 14 -5 12 10
13 8 9 -8 -3 -12 -9 -21 -14 -21 -5 0 -9 -10 -10 -22 0 -21 -1 -21 -8 -4 -6
15 -10 16 -16 7 -4 -7 -3 -16 2 -20 6 -3 13 -13 16 -21 4 -11 6 -10 6 4 1 15
4 16 15 7 10 -8 16 -9 21 -1 6 9 -1 14 -17 11 -11 -1 -10 17 1 23 5 4 11 1 13
-4 2 -6 12 -12 23 -14 11 -2 21 -11 22 -22 2 -10 0 -13 -3 -6 -11 23 -21 12
-20 -23 1 -40 8 -44 24 -12 l11 22 0 -25 c1 -14 6 -32 11 -40 8 -11 9 -7 5 15
-3 17 -2 24 1 17 3 -6 10 -10 15 -6 5 3 9 -6 9 -20 0 -14 5 -26 10 -26 6 0 20
-19 30 -42 11 -24 20 -36 21 -28 3 27 -3 45 -18 63 -15 15 -15 17 1 17 9 0 15
-4 12 -9 -4 -5 7 -20 22 -33 22 -18 27 -29 21 -43 -7 -18 -8 -17 -9 5 -1 23
-2 23 -9 5 -5 -11 -5 -22 -1 -25 4 -3 10 -12 13 -20 4 -12 6 -11 6 3 1 21 21
23 21 2 0 -9 12 -21 28 -27 15 -7 36 -22 47 -33 12 -12 26 -20 33 -17 8 2 10
-2 5 -14 -4 -12 -3 -15 6 -10 6 4 19 2 28 -6 9 -7 14 -8 11 -3 -8 13 38 12 49
0 5 -4 3 -6 -2 -2 -6 3 -17 2 -24 -3 -10 -6 -8 -10 10 -15 13 -4 26 -11 29
-16 3 -5 15 -10 25 -12 11 -1 32 -11 47 -21 16 -10 35 -16 43 -12 8 3 14 0 12
-5 -1 -6 9 -13 23 -15 13 -3 27 -9 31 -15 3 -6 9 -10 13 -10 8 1 13 -1 129
-44 109 -40 142 -42 81 -5 -49 29 -248 189 -363 290 -47 42 -141 137 -209 211
-298 325 -420 528 -478 794 -6 27 -7 28 -14 10 -18 -43 -11 -163 15 -242 l24
-78 -117 120 c-172 176 -394 468 -519 685 -28 48 -41 64 -37 45z m694 -1110
c0 -5 -5 -3 -10 5 -5 8 -10 20 -10 25 0 6 5 3 10 -5 5 -8 10 -19 10 -25z m-26
9 c3 -8 2 -12 -4 -9 -6 3 -10 10 -10 16 0 14 7 11 14 -7z m51 -24 c3 -5 1 -10
-4 -10 -6 0 -11 5 -11 10 0 6 2 10 4 10 3 0 8 -4 11 -10z m12 -38 c21 6 43
-18 36 -39 -8 -22 -25 -14 -18 7 4 12 2 20 -5 20 -6 0 -8 -4 -5 -10 3 -5 -1
-10 -10 -10 -9 0 -14 4 -11 9 3 5 -1 11 -9 15 -8 3 -15 11 -15 18 0 10 3 10 9
-1 5 -8 18 -12 28 -9z m60 -53 c-1 -11 -9 -25 -19 -30 -16 -9 -16 -8 0 21 20
36 21 36 19 9z m323 -346 c0 -13 -3 -13 -15 -3 -8 7 -12 16 -9 21 8 13 24 1
24 -18z m45 -13 c3 -5 2 -10 -4 -10 -5 0 -13 5 -16 10 -3 6 -2 10 4 10 5 0 13
-4 16 -10z"/>
<path d="M5236 9580 c20 -274 75 -475 199 -727 32 -65 45 -83 50 -70 9 23 20
22 22 -3 1 -11 -2 -18 -8 -15 -5 4 -9 -3 -9 -14 0 -12 6 -20 13 -18 6 1 12 -5
11 -14 -1 -9 4 -16 11 -16 7 0 11 7 8 16 -2 9 3 4 12 -11 8 -16 20 -28 25 -28
5 0 8 -16 6 -35 -3 -38 16 -47 44 -22 12 10 12 9 2 -4 -6 -9 -8 -20 -4 -24 4
-5 -1 -5 -10 -2 -19 7 -22 -1 -12 -27 3 -9 10 -13 15 -10 5 3 9 -2 9 -10 0 -9
8 -16 18 -16 13 1 11 6 -11 25 -26 23 -26 25 -8 25 12 0 21 -5 21 -11 0 -5 5
-7 12 -3 7 5 8 3 4 -5 -5 -7 0 -19 10 -27 11 -9 13 -13 7 -9 -8 4 -13 0 -13
-9 0 -9 5 -16 11 -16 5 0 8 -4 5 -9 -3 -5 2 -11 13 -14 10 -2 20 -14 24 -26 7
-27 -9 -28 -18 -1 -3 11 -11 20 -16 20 -5 0 -3 -13 6 -29 11 -21 20 -28 34
-24 16 4 19 1 14 -18 -4 -14 -2 -20 5 -15 6 3 13 2 17 -4 3 -5 11 -10 16 -10
6 0 7 5 3 12 -5 7 -3 8 5 3 10 -6 9 -11 -3 -24 -15 -14 -18 -14 -26 -1 -5 8
-10 10 -10 4 0 -13 25 -36 31 -30 2 3 15 -4 29 -16 14 -11 19 -17 13 -13 -7 3
-13 2 -13 -3 0 -5 9 -12 21 -15 12 -3 18 -10 14 -16 -3 -6 -2 -11 3 -11 5 0
13 -8 16 -17 12 -33 33 -63 39 -57 4 4 13 2 20 -4 8 -7 17 -9 20 -5 4 3 12 1
19 -5 7 -5 30 -13 50 -16 30 -5 36 -3 32 9 -4 8 -1 15 6 15 6 0 9 -4 6 -8 -2
-4 -1 -14 5 -22 7 -12 9 -12 9 -1 0 11 3 11 17 0 15 -13 15 -12 4 9 -6 12 -9
27 -6 32 3 6 -6 11 -22 11 -16 1 -21 3 -11 6 20 5 13 33 -9 33 -13 0 -13 3 -3
15 9 10 9 15 1 15 -6 0 -10 6 -8 13 1 6 -6 11 -15 11 -10 -1 -16 2 -13 6 3 5
1 11 -5 15 -6 4 -8 10 -5 15 9 14 -6 40 -23 40 -8 0 -12 3 -9 6 10 10 -5 32
-110 171 -268 355 -492 742 -575 993 l-38 115 6 -75z"/>
<path d="M3850 9411 c-238 -51 -424 -197 -504 -397 -33 -81 -47 -224 -25 -250
7 -8 8 -14 2 -12 -6 2 -11 0 -12 -4 -3 -21 0 -29 7 -24 10 6 9 -35 -1 -51 -5
-9 -3 -13 8 -13 9 0 15 -6 14 -12 -4 -31 2 -48 17 -48 11 0 14 -6 9 -20 -4
-12 -2 -20 5 -20 6 0 8 -5 5 -10 -4 -6 -1 -9 7 -8 7 2 12 -5 12 -15 -2 -17 -1
-17 16 -2 19 17 40 13 40 -7 0 -7 -5 -7 -14 1 -10 9 -15 8 -20 -4 -4 -11 2
-15 22 -16 17 -1 20 -3 10 -6 -35 -9 -18 -37 49 -80 15 -9 30 -20 33 -23 13
-13 92 -50 157 -73 129 -46 222 -59 473 -66 l235 -6 -85 -18 c-83 -18 -101
-22 -137 -32 -200 -53 -268 -68 -387 -81 -179 -19 -311 -46 -451 -91 -100 -32
-280 -111 -272 -120 2 -2 28 2 58 7 30 6 77 13 104 15 28 3 79 8 115 11 36 4
84 7 107 8 23 1 45 5 49 8 4 4 15 3 25 -3 11 -5 19 -6 19 -2 0 5 17 7 38 5 20
-1 64 -2 97 -2 50 0 57 -2 40 -12 -11 -6 -26 -20 -33 -30 -7 -10 -18 -16 -23
-13 -5 4 -9 2 -9 -3 0 -5 -66 -59 -148 -120 -294 -220 -495 -441 -616 -678
-33 -66 -69 -154 -62 -154 1 0 20 25 40 55 92 132 298 282 455 330 l25 8 -25
-30 c-36 -43 -101 -172 -143 -285 -93 -251 -86 -530 18 -753 32 -67 116 -191
101 -150 -3 11 -16 47 -28 80 -32 89 -29 242 5 350 28 88 33 85 42 -21 12
-144 80 -357 153 -477 126 -208 299 -347 493 -398 151 -39 432 -24 671 35 87
22 91 24 49 26 -25 1 -52 3 -60 5 -8 1 -33 6 -55 9 -174 28 -340 121 -486 273
-134 139 -241 315 -284 468 -38 132 -48 67 -15 -95 27 -133 79 -279 151 -422
70 -139 62 -142 -61 -19 -131 132 -236 320 -284 510 -12 50 -26 94 -29 98 -4
3 -7 -25 -8 -63 0 -38 -4 -91 -8 -119 l-7 -50 -9 50 c-14 75 -8 250 10 335 79
373 277 646 580 798 92 46 237 91 336 104 49 7 89 16 89 20 0 11 -49 10 -150
-2 -237 -28 -422 -107 -595 -253 -189 -159 -346 -354 -402 -501 l-23 -61 6 45
c7 56 48 203 75 273 28 73 74 159 130 248 52 80 60 102 32 77 -10 -8 -38 -26
-63 -40 -25 -15 -56 -36 -70 -49 -14 -12 -36 -32 -49 -43 l-24 -21 19 34 c27
48 149 177 210 222 28 21 96 63 150 94 l99 57 -70 -6 c-38 -3 -92 -8 -120 -12
l-50 -6 50 32 c89 59 227 122 360 165 152 50 151 51 -80 63 l-140 7 150 32
c229 49 334 64 461 64 l87 0 -114 71 c-63 39 -116 73 -119 76 -3 2 30 2 72 -1
144 -12 336 -62 533 -140 88 -34 143 -55 332 -123 51 -18 102 -38 113 -44 11
-6 20 -8 20 -4 0 3 6 2 13 -3 14 -12 86 -38 104 -38 7 0 26 -13 42 -29 17 -17
31 -24 31 -18 0 7 -7 15 -15 18 -8 4 -15 11 -15 16 0 7 5 6 13 -1 8 -6 31 -13
53 -17 21 -3 41 -8 43 -10 2 -2 11 1 21 6 10 5 20 7 23 3 4 -3 28 -8 54 -10
60 -5 200 -37 249 -58 20 -8 38 -14 40 -12 2 2 -22 31 -54 65 -133 144 -365
228 -772 279 -80 9 -146 21 -148 24 -13 28 -91 151 -116 182 -17 20 -66 65
-109 99 -42 33 -75 63 -73 66 3 2 32 -9 66 -25 33 -17 60 -29 60 -27 0 2 -24
45 -53 96 -51 87 -57 94 -118 125 -75 38 -256 99 -421 142 -64 17 -120 31
-123 31 -12 0 49 -46 145 -110 166 -111 259 -185 250 -200 -4 -7 -13 -9 -20
-5 -9 6 -9 2 0 -15 11 -20 10 -22 -3 -17 -9 3 -18 1 -20 -6 -6 -18 -657 -10
-749 8 -151 31 -268 114 -334 237 -38 72 -39 75 -38 178 0 85 4 114 22 153 74
163 223 294 427 375 44 17 103 38 130 46 l50 14 -45 0 c-25 0 -83 -8 -130 -17z
m-434 -829 c-8 -9 -19 -13 -22 -9 -10 9 16 38 28 31 6 -4 4 -13 -6 -22z m75
-105 c-10 -9 -11 -8 -5 6 3 10 9 15 12 12 3 -3 0 -11 -7 -18z m1482 -384 c-7
-2 -21 -2 -30 0 -10 3 -4 5 12 5 17 0 24 -2 18 -5z m67 -12 c0 -4 -11 -6 -25
-3 -14 2 -25 6 -25 8 0 2 11 4 25 4 14 0 25 -4 25 -9z"/>
<path d="M2896 8905 c-8 -9 -19 -15 -23 -15 -16 2 -14 -30 1 -36 22 -8 49 15
43 37 -3 10 0 20 7 23 8 3 8 5 -1 5 -6 1 -18 -6 -27 -14z"/>
<path d="M5291 8724 c45 -81 104 -168 135 -199 28 -28 130 -105 139 -105 10 0
-48 105 -83 150 -39 49 -124 133 -186 182 l-38 31 33 -59z"/>
<path d="M5851 8705 c72 -134 184 -294 207 -295 6 0 12 -9 12 -21 0 -11 5 -17
10 -14 6 3 10 -1 10 -10 0 -9 4 -13 10 -10 6 3 7 -1 4 -10 -5 -11 0 -18 16
-22 15 -4 20 -11 17 -24 -7 -27 10 -24 19 3 6 19 7 19 16 4 5 -9 6 -25 3 -36
-5 -15 -2 -20 12 -20 17 -1 17 -2 -1 -15 -19 -15 -19 -15 1 -15 17 0 20 -4 15
-22 -5 -21 -4 -22 13 -8 15 12 17 12 10 1 -6 -11 -4 -13 8 -8 10 4 18 -1 22
-14 4 -10 11 -19 18 -19 6 0 3 -6 -7 -13 -16 -12 -16 -14 -2 -14 29 0 24 42
-15 122 -40 83 -93 151 -252 323 -75 81 -145 158 -157 172 -14 16 -10 4 11
-35z"/>
<path d="M5540 8660 c13 -24 17 -25 17 -5 0 8 -6 16 -14 19 -11 4 -11 1 -3
-14z"/>
<path d="M7030 8380 c-30 -5 -70 -13 -88 -19 -43 -13 -125 -61 -118 -68 3 -3
115 -6 248 -7 271 -2 295 -5 428 -68 111 -53 183 -124 236 -233 37 -75 39 -86
39 -170 0 -91 -10 -126 -52 -185 l-18 -24 33 19 c85 51 142 152 142 252 0 57
-41 179 -70 207 l-20 20 0 -21 c0 -12 -4 -25 -10 -28 -6 -3 -7 1 -4 9 7 19 -7
21 -23 5 -9 -9 -10 -6 -6 11 5 18 3 21 -8 15 -11 -6 -12 -5 -2 5 10 11 15 11
29 -1 16 -13 16 -12 6 6 -17 32 -59 73 -82 80 -11 3 -20 12 -20 19 0 8 -8 20
-17 27 -14 12 -16 12 -8 0 5 -8 -6 -5 -23 8 -18 12 -37 19 -42 16 -6 -4 -9 -2
-8 3 2 6 -1 11 -7 13 -5 1 -16 8 -22 15 -19 19 -140 61 -223 78 -98 20 -222
27 -290 16z m681 -233 c-6 -8 -7 -18 -3 -22 4 -5 1 -5 -6 -1 -10 6 -10 11 -1
22 6 8 14 14 16 14 3 0 0 -6 -6 -13z"/>
<path d="M5133 8355 c0 -8 4 -15 9 -15 4 0 8 4 8 9 0 6 -4 12 -8 15 -5 3 -9
-1 -9 -9z"/>
<path d="M5188 8303 c7 -3 16 -2 19 1 4 3 -2 6 -13 5 -11 0 -14 -3 -6 -6z"/>
<path d="M6516 8048 c2 -145 6 -281 9 -303 7 -45 51 -119 66 -110 5 4 8 1 7
-7 -2 -7 2 -12 8 -11 6 1 24 -11 39 -27 16 -17 32 -30 35 -30 20 0 -134 714
-160 743 -4 5 -6 -110 -4 -255z"/>
<path d="M3012 8255 c-537 -137 -945 -377 -1187 -699 -66 -88 -113 -187 -121
-258 -8 -72 21 -142 78 -186 23 -18 47 -32 54 -32 6 0 17 -7 24 -15 6 -8 15
-14 18 -13 4 1 32 -11 63 -25 79 -36 251 -88 299 -90 22 -1 40 -4 40 -7 0 -3
11 -7 25 -8 18 -1 23 2 19 13 -4 8 -13 15 -22 15 -8 0 -13 3 -10 6 4 3 -5 22
-18 41 -13 20 -24 40 -24 45 0 5 -5 6 -12 2 -6 -4 -8 -3 -4 4 10 17 -37 112
-86 172 -61 75 -84 117 -98 172 -24 96 41 226 190 378 105 107 178 165 302
242 179 111 347 187 542 244 145 43 98 42 -72 -1z"/>
<path d="M5315 8190 c-3 -5 -1 -10 4 -10 6 0 11 5 11 10 0 6 -2 10 -4 10 -3 0
-8 -4 -11 -10z"/>
<path d="M5375 8160 c3 -5 8 -10 11 -10 2 0 4 5 4 10 0 6 -5 10 -11 10 -5 0
-7 -4 -4 -10z"/>
<path d="M6235 8150 c-3 -5 -1 -10 4 -10 6 0 11 5 11 10 0 6 -2 10 -4 10 -3 0
-8 -4 -11 -10z"/>
<path d="M5888 8068 c28 -29 69 -80 91 -112 57 -87 156 -182 243 -233 92 -53
130 -96 258 -288 92 -139 178 -253 232 -309 15 -15 28 -33 28 -39 0 -7 3 -7 9
-1 5 5 12 43 16 84 3 41 12 108 19 148 14 84 24 68 -89 142 -125 81 -157 118
-235 270 -94 182 -140 235 -264 295 -94 47 -197 77 -301 90 l-60 7 53 -54z"/>
<path d="M8227 8083 c-13 -12 -7 -50 11 -65 9 -9 53 -37 97 -63 94 -55 193
-126 288 -208 37 -31 72 -55 78 -52 5 4 8 2 7 -4 -4 -16 84 -102 98 -97 7 3
11 0 9 -7 -5 -14 39 -67 55 -67 5 0 10 -6 10 -12 0 -9 4 -8 10 2 8 13 10 12
11 -5 1 -11 2 -26 2 -32 -1 -7 5 -13 12 -13 7 0 15 -9 18 -20 3 -12 14 -20 27
-20 l21 0 -22 33 c-13 17 -28 37 -34 43 -5 6 -21 25 -35 43 -43 56 -78 91 -90
91 -6 0 -8 5 -5 11 15 24 -326 334 -459 418 -47 29 -94 40 -109 24z"/>
<path d="M1550 8014 c-19 -8 -43 -23 -53 -32 -21 -19 -73 -117 -79 -147 -1
-11 -6 -22 -9 -25 -4 -3 -10 -16 -14 -30 -8 -25 -7 -25 13 -6 12 10 19 22 16
27 -5 8 6 22 101 128 86 95 90 101 74 101 -8 -1 -30 -8 -49 -16z"/>
<path d="M6746 7890 c-13 -78 -39 -268 -41 -306 -3 -38 1 -46 46 -90 l49 -48
0 44 c0 33 3 41 10 30 22 -33 33 -99 32 -190 l-1 -95 39 109 c22 60 40 114 40
120 0 5 -24 62 -54 125 -29 64 -63 154 -76 201 -39 146 -36 140 -44 100z"/>
<path d="M4395 7805 c17 -8 111 -47 210 -86 99 -39 236 -97 304 -130 68 -32
128 -56 135 -52 6 3 8 2 4 -2 -9 -10 60 -54 85 -55 9 0 17 -3 17 -7 0 -5 26
-21 58 -38 31 -16 59 -33 62 -37 10 -14 55 -14 52 0 -1 8 2 11 8 7 8 -5 8 -11
0 -20 -9 -11 -2 -18 32 -33 39 -17 44 -17 50 -3 5 12 7 11 7 -6 1 -21 11 -28
34 -24 4 0 7 -4 7 -9 0 -13 37 -13 45 0 4 6 -5 10 -20 10 -14 0 -24 4 -21 9 3
5 -1 14 -9 21 -8 7 -15 9 -15 4 0 -5 -5 -1 -11 9 -8 14 -8 22 1 30 10 9 11 8
6 -8 -4 -11 -4 -16 0 -12 4 4 13 2 21 -4 20 -17 16 -1 -7 23 -11 12 -20 18
-20 14 0 -5 -7 -2 -16 5 -23 19 -44 20 -37 1 4 -9 2 -13 -4 -9 -6 4 -14 1 -16
-5 -3 -7 -6 -3 -6 10 -1 12 3 22 9 22 5 0 25 16 44 34 38 39 106 63 207 74
l62 7 -125 42 c-80 28 -179 52 -279 68 -219 37 -815 145 -884 161 -11 2 -6 -3
10 -11z m759 -303 c3 -5 -1 -9 -9 -9 -8 0 -12 4 -9 9 3 4 7 8 9 8 2 0 6 -4 9
-8z m173 -79 c-11 -10 -26 8 -20 23 5 15 7 14 15 -1 6 -9 7 -19 5 -22z m77
-19 c3 -8 2 -12 -4 -9 -6 3 -10 10 -10 16 0 14 7 11 14 -7z m-20 -26 c-5 -8
-1 -9 12 -4 14 5 16 4 8 -4 -12 -12 -47 -3 -38 11 3 5 10 9 15 9 6 0 7 -5 3
-12z m76 -42 c0 -3 -4 -8 -10 -11 -5 -3 -10 -1 -10 4 0 6 5 11 10 11 6 0 10
-2 10 -4z"/>
<path d="M5440 7816 c0 -2 7 -7 16 -10 8 -3 12 -2 9 4 -6 10 -25 14 -25 6z"/>
<path d="M5270 7775 c0 -9 146 -73 277 -120 162 -59 213 -82 335 -153 111 -64
223 -122 235 -122 13 0 -72 82 -131 126 -67 51 -58 57 20 14 30 -16 54 -25 54
-20 0 5 -5 12 -10 15 -6 4 -10 12 -9 18 3 28 -4 38 -61 82 -57 44 -170 102
-170 88 0 -4 -5 -2 -12 5 -7 7 -20 12 -30 12 -10 0 -18 5 -18 10 0 6 -8 10
-17 8 -11 -2 -17 2 -15 11 3 12 0 12 -12 2 -13 -11 -23 -10 -56 7 -22 11 -40
15 -40 10 0 -5 -9 -4 -20 2 -11 6 -20 7 -20 2 0 -5 17 -17 38 -25 l37 -17 -35
5 c-19 3 -69 7 -110 10 -73 6 -177 21 -212 31 -10 3 -18 3 -18 -1z"/>
<path d="M2752 7420 c-21 -9 -48 -57 -38 -68 6 -5 66 59 66 70 0 9 2 9 -28 -2z"/>
<path d="M8982 7394 c10 -10 20 -16 22 -13 3 3 -5 11 -17 18 -21 13 -21 12 -5
-5z"/>
<path d="M5599 7373 c11 -20 42 -48 55 -50 5 -1 13 -8 18 -17 5 -9 13 -14 17
-12 4 3 8 -5 8 -16 1 -12 7 -26 14 -32 9 -8 10 -8 5 1 -3 6 -2 15 4 18 6 4 10
3 9 -2 -4 -25 3 -43 17 -43 8 0 22 -7 31 -15 8 -8 19 -13 23 -10 5 3 7 -4 5
-15 -5 -23 -1 -24 110 -10 44 5 113 12 154 14 41 3 76 7 78 9 9 10 -12 39 -38
53 -16 8 -120 37 -232 64 -111 27 -219 56 -239 64 -47 20 -51 20 -39 -1z"/>
<path d="M6270 7374 c109 -132 153 -173 230 -213 59 -31 80 -38 80 -27 0 18
-67 97 -123 143 -50 42 -210 125 -187 97z"/>
<path d="M9010 7361 c0 -7 7 -19 15 -27 19 -20 19 -5 0 20 -9 11 -15 14 -15 7z"/>
<path d="M5496 7292 c-3 -5 1 -9 9 -9 8 0 15 4 15 9 0 4 -4 8 -9 8 -6 0 -12
-4 -15 -8z"/>
<path d="M4915 7253 c11 -11 257 -156 368 -217 37 -20 71 -35 76 -31 5 3 11 0
13 -7 2 -6 19 -17 38 -23 50 -17 47 -31 -7 -31 -141 1 -253 -5 -253 -12 0 -9
104 -34 150 -36 16 0 30 -5 30 -9 0 -5 18 -7 40 -5 22 2 40 0 40 -3 0 -4 19
-11 43 -15 23 -4 49 -9 57 -10 72 -14 88 -17 107 -16 14 0 20 -5 16 -14 -3 -8
-9 -14 -15 -14 -5 0 -6 -4 -3 -10 4 -6 -1 -7 -11 -3 -13 5 -16 3 -11 -10 4
-12 1 -15 -14 -12 -10 2 -19 -1 -19 -6 0 -6 -4 -7 -10 -4 -5 3 -10 1 -10 -5 0
-6 -3 -9 -7 -7 -5 2 -21 -2 -38 -9 -26 -12 -11 -13 121 -9 84 2 156 5 160 6 5
1 11 1 14 -1 3 -1 42 -3 88 -5 116 -5 200 -15 244 -31 21 -7 41 -13 43 -13 14
0 124 -64 147 -86 15 -14 31 -25 35 -25 5 0 17 -14 27 -30 l17 -30 27 19 c15
10 40 32 55 49 l28 29 -64 60 c-36 33 -111 98 -168 144 -57 46 -126 105 -152
131 -26 27 -52 48 -57 48 -5 0 -12 5 -16 12 -4 7 -3 8 4 4 7 -4 12 -2 12 3 0
6 -11 11 -25 11 -14 0 -25 -4 -25 -10 0 -5 -5 -10 -12 -10 -7 0 -5 7 5 18 15
17 15 18 -11 16 -15 -1 -29 -3 -32 -4 -3 -1 -9 -2 -13 -1 -5 1 4 -14 18 -33
29 -38 103 -105 224 -202 110 -88 116 -101 25 -55 -90 46 -96 48 -88 24 5 -14
4 -15 -4 -4 -8 11 -11 11 -16 0 -3 -8 -3 -4 0 8 4 18 2 22 -10 17 -9 -3 -16
-2 -16 4 0 5 -16 8 -35 6 -19 -1 -35 2 -35 7 0 6 -9 7 -20 4 -14 -4 -20 -2
-18 7 2 7 -7 14 -19 16 -13 2 -23 7 -23 12 0 8 -30 20 -62 24 -13 2 -15 -1 -8
-14 6 -12 5 -17 -5 -17 -8 0 -12 4 -10 8 8 13 -7 39 -18 32 -6 -4 -8 0 -4 9 4
11 -1 18 -14 21 -10 3 -19 1 -19 -5 0 -5 -4 -6 -10 -3 -5 3 -10 1 -10 -5 0 -7
7 -10 15 -7 8 4 17 1 21 -5 5 -7 2 -8 -6 -3 -10 6 -12 1 -8 -19 3 -14 1 -26
-3 -26 -5 0 -9 8 -9 19 0 10 -7 24 -15 31 -8 7 -12 16 -9 21 3 5 -1 9 -8 9 -9
0 -9 3 2 10 13 8 13 11 1 22 -11 11 -13 11 -6 -1 6 -10 4 -12 -5 -6 -10 6 -10
11 3 20 10 7 17 15 17 17 0 8 -54 3 -67 -5 -12 -8 -22 12 -16 31 3 6 9 12 15
12 6 0 8 -6 5 -14 -4 -9 0 -13 11 -12 9 2 17 11 17 22 0 13 -6 18 -20 16 -16
-3 -18 -1 -7 9 18 19 15 48 -5 47 -35 -2 -160 14 -259 33 -98 18 -494 122
-517 135 -8 5 -9 4 -2 -3z m566 -216 c-10 -9 -11 -8 -5 6 3 10 9 15 12 12 3
-3 0 -11 -7 -18z m186 -29 c-1 -22 -3 -36 -5 -30 -2 7 -11 12 -19 12 -10 0
-13 6 -9 16 3 9 6 21 6 27 0 7 4 6 10 -3 8 -13 10 -12 10 3 0 9 2 17 4 17 2 0
3 -19 3 -42z m-237 28 c0 -2 -8 -10 -17 -17 -16 -13 -17 -12 -4 4 13 16 21 21
21 13z m20 -16 c-6 -11 -13 -20 -16 -20 -2 0 0 9 6 20 6 11 13 20 16 20 2 0 0
-9 -6 -20z m159 -3 c0 -9 -2 -8 -6 1 -2 6 -9 10 -14 6 -14 -8 -11 -24 5 -24 9
0 12 -7 9 -20 -3 -11 -9 -20 -14 -20 -5 0 -6 7 -2 17 5 13 2 15 -16 10 -18 -4
-20 -3 -10 9 6 8 8 14 3 14 -4 0 1 6 11 14 21 15 35 12 34 -7z m-88 -9 c11
-21 11 -22 -4 -9 -10 7 -17 17 -17 22 0 15 9 10 21 -13z m113 -44 c3 -8 2 -12
-4 -9 -6 3 -10 10 -10 16 0 14 7 11 14 -7z m77 -7 c-6 -8 -8 -17 -4 -20 3 -4
1 -7 -5 -7 -15 0 -15 13 0 28 16 16 23 15 9 -1z m-61 -31 c0 -2 -7 -7 -16 -10
-8 -3 -12 -2 -9 4 6 10 25 14 25 6z m21 -37 c-5 -13 -10 -19 -10 -12 -1 15 10
45 15 40 3 -2 0 -15 -5 -28z m-130 -4 l9 20 -3 -20 c-2 -22 -21 -24 -23 -3 0
7 1 6 4 -2 4 -12 7 -11 13 5z m104 5 c-3 -5 -12 -10 -18 -10 -7 0 -6 4 3 10
19 12 23 12 15 0z m244 -81 c-15 -9 -32 -2 -24 11 3 5 13 6 21 3 12 -4 13 -8
3 -14z m296 -59 c3 -5 1 -10 -4 -10 -6 0 -11 5 -11 10 0 6 2 10 4 10 3 0 8 -4
11 -10z"/>
<path d="M7765 7244 c-22 -2 -92 -9 -155 -14 -183 -16 -292 -39 -313 -64 -13
-16 -16 -17 -11 -3 3 9 1 17 -5 17 -10 0 -15 -14 -12 -34 1 -5 -5 -6 -13 -3
-10 4 -13 1 -10 -7 3 -7 -2 -19 -11 -26 -8 -7 -15 -9 -15 -4 -1 26 -20 -26
-20 -54 0 -30 2 -32 20 -22 11 6 20 7 20 2 0 -11 20 -10 235 18 273 35 666 33
900 -5 157 -25 349 -91 465 -159 88 -51 205 -169 240 -241 33 -69 39 -177 12
-237 -42 -96 -132 -168 -267 -214 -67 -23 -102 -28 -216 -32 -154 -5 -246 9
-380 58 -110 41 -115 40 -79 -19 17 -27 40 -84 52 -127 21 -76 22 -100 26
-701 l4 -623 -354 0 -353 0 47 27 47 26 3 621 c2 342 2 623 1 625 -1 2 -7 -8
-12 -22 -6 -14 -21 -33 -35 -42 -30 -20 -157 -64 -200 -70 -50 -6 -99 -16
-106 -20 -6 -4 -62 -11 -160 -20 -19 -2 -51 -6 -70 -9 -46 -8 -148 -16 -235
-20 -38 -2 -104 -6 -145 -10 -41 -3 -115 -8 -165 -12 -94 -6 -139 -23 -69 -26
21 0 45 -1 52 -1 6 1 12 -3 12 -7 0 -5 8 -8 18 -7 22 1 80 -25 147 -67 115
-72 242 -233 277 -351 24 -80 28 -230 28 -977 0 -754 1 -800 18 -794 15 5 15
5 1 -6 -10 -9 -18 -38 -23 -83 -11 -114 -12 -118 -41 -194 -30 -79 -113 -198
-189 -269 -25 -24 -46 -48 -46 -53 0 -6 -5 -7 -10 -4 -6 3 -22 -3 -36 -14 -33
-26 -28 -26 60 0 185 53 449 146 554 193 175 79 192 88 192 103 0 8 4 12 10 8
11 -7 90 41 90 56 0 5 5 7 10 4 6 -4 24 7 40 24 l30 29 0 495 0 495 -45 29
c-25 15 -45 31 -45 36 0 4 171 7 381 6 l381 -2 -31 -20 -32 -19 1 -238 c1
-190 4 -239 15 -244 18 -6 26 18 12 35 -9 10 -8 10 6 -1 16 -11 22 -9 49 16
54 49 171 170 213 219 22 25 49 55 59 66 11 10 17 19 14 19 -4 0 9 18 29 39
19 22 34 42 33 46 -1 4 6 12 16 19 9 7 14 18 10 24 -5 8 -1 10 10 5 12 -4 15
-3 10 5 -6 11 18 60 37 73 5 3 8 8 7 10 -3 9 37 88 43 83 18 -19 26 104 28
421 2 406 9 525 39 626 38 128 76 187 187 289 179 167 236 245 268 366 16 63
19 220 4 230 -5 3 -6 10 -3 16 4 6 0 14 -7 19 -12 7 -12 9 0 9 10 0 11 3 2 14
-6 8 -11 18 -10 22 1 5 -6 27 -16 49 -10 22 -18 46 -16 53 1 6 -4 12 -10 12
-7 0 -10 3 -6 6 3 3 -5 17 -19 31 -13 13 -24 28 -24 33 0 5 -33 43 -72 83
-119 122 -277 214 -470 276 -108 34 -297 74 -428 91 -91 11 -409 21 -475 14z
m-420 -74 c-28 -12 -37 -12 -30 0 3 6 16 10 28 9 21 0 21 -1 2 -9z"/>
<path d="M6248 7203 c6 -2 10 -9 6 -14 -3 -5 -1 -9 5 -9 6 0 18 -8 28 -17 10
-10 31 -29 48 -43 22 -19 26 -20 15 -5 -14 19 -14 19 6 3 11 -10 26 -18 33
-18 9 0 11 -8 8 -21 -4 -16 -3 -18 9 -8 14 12 18 6 15 -31 0 -8 2 -10 5 -4 3
7 14 10 25 7 15 -4 17 -9 9 -18 -9 -11 -5 -13 15 -11 19 3 23 0 15 -9 -8 -10
-3 -15 19 -23 16 -6 33 -7 37 -4 4 4 4 2 1 -4 -4 -7 0 -17 8 -24 8 -7 15 -9
15 -4 0 4 7 -1 16 -12 8 -10 13 -12 9 -4 -5 12 -4 12 7 -1 29 -36 255 -167
298 -174 123 -20 178 -68 294 -256 48 -77 72 -107 79 -100 17 17 31 13 17 -4
-7 -9 -10 -18 -6 -22 3 -3 6 -1 6 5 0 7 5 12 11 12 5 0 7 -4 4 -10 -3 -5 -1
-10 5 -10 7 0 9 -7 6 -16 -4 -11 -2 -15 8 -11 13 5 13 1 5 -21 -7 -20 5 -12
48 35 49 52 103 92 136 99 4 1 10 2 13 3 4 0 1 8 -6 16 -11 13 -10 14 5 8 14
-5 17 -3 12 10 -4 12 -2 14 10 10 38 -15 -45 106 -134 195 -125 126 -141 123
-74 -11 l39 -78 -269 266 c-148 146 -273 265 -279 265 -11 0 -24 -77 -25 -146
l0 -50 -70 37 c-38 21 -96 47 -128 59 -32 12 -124 55 -205 96 -81 41 -151 73
-157 73 -5 0 -4 -3 3 -6z m1076 -683 c22 -24 33 -41 24 -38 -20 8 -38 -12 -41
-42 l-1 -22 -18 22 c-10 12 -18 37 -18 54 0 18 -4 36 -9 42 -5 5 -14 27 -20
49 l-10 40 26 -30 c14 -16 44 -50 67 -75z m131 -48 c-3 -3 -11 0 -18 7 -9 10
-8 11 6 5 10 -3 15 -9 12 -12z m45 -2 c0 -5 -5 -10 -11 -10 -5 0 -7 5 -4 10 3
6 8 10 11 10 2 0 4 -4 4 -10z m-140 -25 c0 -11 -29 -11 -33 -1 -4 10 1 12 14
9 10 -3 19 -7 19 -8z m23 -5 c-3 -12 -8 -19 -11 -16 -5 6 5 36 12 36 2 0 2 -9
-1 -20z m32 -10 c3 -5 2 -10 -4 -10 -5 0 -13 5 -16 10 -3 6 -2 10 4 10 5 0 13
-4 16 -10z m-54 -27 c13 -15 12 -15 -8 -4 -24 12 -29 21 -14 21 5 0 15 -7 22
-17z m-33 -18 c-3 -3 -9 2 -12 12 -6 14 -5 15 5 6 7 -7 10 -15 7 -18z"/>
<path d="M7281 6483 c-1 -29 15 -38 22 -13 3 11 1 18 -3 15 -5 -3 -11 1 -13 7
-3 7 -6 3 -6 -9z"/>
<path d="M7200 7135 c-7 -9 -10 -18 -7 -21 3 -3 10 4 17 15 13 25 8 27 -10 6z"/>
<path d="M1227 7010 c-61 -64 -167 -214 -167 -235 0 -3 -11 -27 -24 -54 -13
-27 -27 -67 -31 -88 -4 -21 -9 -42 -12 -46 -8 -13 -15 -122 -14 -202 3 -129
40 -250 168 -550 91 -212 124 -322 143 -471 5 -39 10 -379 11 -755 l1 -684 78
37 c81 38 217 84 226 75 3 -2 -11 -15 -31 -27 -19 -12 -32 -27 -29 -32 4 -7 2
-8 -4 -4 -6 4 -20 -2 -31 -13 -11 -11 -22 -16 -26 -13 -3 4 -3 -1 1 -11 3 -10
1 -17 -5 -17 -6 0 -11 6 -11 13 0 8 -3 7 -9 -3 -6 -8 -7 -18 -5 -22 6 -10 -21
-39 -29 -32 -3 3 -8 -5 -12 -17 -7 -21 -9 -21 -20 -6 -11 15 -15 14 -44 -13
-17 -17 -31 -35 -31 -41 0 -5 -8 -9 -17 -7 -9 2 -22 -6 -28 -18 -5 -11 -16
-19 -24 -16 -9 3 -11 0 -6 -8 6 -9 4 -12 -6 -8 -16 6 -121 -96 -111 -108 4 -4
-1 -4 -10 -1 -12 4 -18 1 -18 -8 0 -8 -7 -15 -16 -15 -11 0 -14 -6 -9 -21 5
-15 4 -19 -5 -14 -12 8 -14 6 -101 -95 -118 -136 -197 -315 -207 -467 -14
-229 92 -403 332 -546 53 -33 100 -56 104 -53 3 4 -5 14 -18 23 -50 35 -92 78
-145 149 -100 132 -135 233 -135 390 0 126 26 234 88 364 24 52 44 96 43 98
-1 2 9 13 23 26 14 12 26 29 26 39 0 9 5 17 10 17 6 0 10 5 10 10 0 6 11 21
25 34 14 13 25 27 25 31 0 4 9 17 20 29 11 12 48 50 82 86 34 36 65 64 70 63
4 -2 7 3 5 10 -1 6 3 11 10 10 7 -2 10 4 7 12 -4 10 0 15 11 15 9 0 14 4 10 9
-3 5 -2 12 3 15 4 2 9 -4 9 -15 1 -10 -2 -19 -7 -19 -5 0 -11 -8 -14 -18 -4
-10 -16 -29 -29 -43 l-22 -24 1 -410 c1 -419 3 -461 29 -552 16 -56 29 -72 39
-47 3 8 10 12 16 9 6 -4 2 -13 -10 -23 l-20 -17 20 -33 c12 -20 25 -30 32 -26
6 4 8 3 5 -4 -8 -12 1 -42 13 -42 5 0 6 10 3 23 -3 12 -2 19 2 15 4 -4 8 -21
7 -37 0 -25 3 -28 21 -24 16 4 18 2 8 -5 -16 -12 -5 -36 14 -28 9 3 11 -2 7
-17 -3 -12 -2 -19 2 -16 8 8 62 -42 58 -53 -3 -11 12 -10 26 2 9 7 9 7 2 -2
-17 -21 -11 -28 21 -24 22 3 27 0 20 -7 -15 -15 -14 -27 4 -27 8 0 15 -4 15
-10 0 -5 6 -10 14 -10 8 0 16 -7 20 -15 3 -8 12 -15 21 -15 8 0 15 -4 15 -10
0 -5 6 -10 14 -10 8 0 16 -7 20 -15 3 -8 13 -15 22 -15 9 0 27 -9 41 -20 14
-11 34 -20 44 -20 15 0 19 8 20 43 0 23 2 535 4 1138 3 903 2 1106 -10 1155
-7 32 -12 60 -10 62 2 2 11 -8 22 -23 44 -63 117 -160 123 -165 3 -3 17 -21
30 -40 13 -19 27 -37 30 -40 3 -3 28 -34 55 -70 255 -339 667 -760 935 -957
129 -94 310 -203 339 -203 5 0 -81 89 -191 198 -110 108 -240 242 -289 298
-87 98 -215 264 -204 264 3 0 40 -29 81 -65 94 -82 343 -268 494 -369 144 -97
408 -228 521 -260 223 -63 423 -60 629 10 87 30 195 83 260 127 59 41 185 162
220 213 43 61 92 163 85 174 -3 5 -2 10 3 10 5 0 13 19 17 43 4 23 10 49 12
57 12 45 8 172 -9 239 -39 160 -122 284 -367 547 -36 39 -78 85 -94 103 -15
17 -32 31 -37 31 -6 0 -10 6 -10 13 0 6 -12 23 -26 36 -14 14 -39 44 -56 69
l-30 44 39 41 c55 57 90 112 158 247 66 131 125 227 198 319 28 35 47 62 42
60 -133 -56 -242 -92 -330 -109 -60 -12 -119 -23 -131 -25 -16 -4 -28 -26 -57
-114 -40 -122 -39 -145 8 -207 24 -31 25 -36 10 -50 -14 -15 -18 -15 -40 0
-68 45 -116 148 -123 267 l-5 86 -151 6 c-182 8 -343 34 -491 80 -60 19 -112
33 -114 32 -8 -8 323 -436 403 -521 l85 -91 -22 -29 c-44 -58 -177 -190 -236
-234 -57 -43 -76 -64 -48 -55 6 2 50 11 97 20 106 20 245 86 319 151 l53 48
-17 -35 c-108 -209 -369 -339 -680 -339 -79 0 -86 -2 -80 -17 11 -26 39 -132
66 -248 25 -111 92 -255 140 -300 28 -28 29 -28 50 -9 12 10 99 123 194 249
95 127 212 280 261 342 49 61 107 135 129 163 l40 51 54 -58 c30 -32 145 -152
255 -267 258 -268 268 -282 274 -385 5 -95 -9 -164 -52 -246 -38 -73 -143
-180 -213 -218 -63 -34 -189 -67 -254 -67 -120 0 -299 52 -486 141 -68 31
-123 55 -123 51 0 -4 -4 -2 -8 4 -6 10 -38 29 -113 69 -11 5 -19 13 -19 18 0
4 -4 6 -9 3 -5 -3 -21 6 -36 20 -15 14 -44 36 -64 48 -49 31 -302 230 -416
326 -181 153 -293 246 -334 277 l-43 32 34 5 c18 3 67 11 108 17 250 39 545
217 618 373 65 138 50 324 -43 524 -61 128 -124 219 -215 306 -83 79 -161 127
-280 174 -76 29 -115 39 -450 112 -227 50 -450 110 -551 149 -265 102 -506
275 -582 418 -89 167 -63 347 79 541 32 43 5 21 -69 -58z m822 -1261 c215 -20
339 -77 487 -225 96 -96 165 -192 221 -305 92 -187 62 -282 -117 -367 -169
-79 -322 -109 -582 -111 l-178 -2 -2 462 -3 463 -60 18 c-33 9 -82 27 -109 40
-44 21 -47 23 -25 29 38 11 244 10 368 -2z m-749 -1969 c0 -5 -5 -10 -11 -10
-5 0 -7 5 -4 10 3 6 8 10 11 10 2 0 4 -4 4 -10z m180 -624 c0 -2 -9 -6 -20 -9
-11 -3 -18 -1 -14 4 5 9 34 13 34 5z m-75 -126 c3 -5 1 -10 -4 -10 -6 0 -11 5
-11 10 0 6 2 10 4 10 3 0 8 -4 11 -10z m-28 -86 c-3 -3 -12 -4 -19 -1 -8 3 -5
6 6 6 11 1 17 -2 13 -5z m38 -15 c-10 -15 -25 -10 -19 6 4 8 10 12 15 9 5 -3
7 -10 4 -15z m52 -1 c-3 -8 -6 -5 -6 6 -1 11 2 17 5 13 3 -3 4 -12 1 -19z
m163 8 c0 -3 -4 -8 -10 -11 -5 -3 -10 -1 -10 4 0 6 5 11 10 11 6 0 10 -2 10
-4z m-114 -51 c-6 -17 9 -21 17 -5 3 6 4 5 3 -2 -4 -19 -29 -16 -32 5 -1 9 2
17 8 17 6 0 8 -7 4 -15z m249 5 c3 -6 -1 -7 -9 -4 -18 7 -21 14 -7 14 6 0 13
-4 16 -10z m45 -4 c0 -2 -8 -10 -17 -17 -16 -13 -17 -12 -4 4 13 16 21 21 21
13z m-210 -10 c0 -3 -4 -8 -10 -11 -5 -3 -10 -1 -10 4 0 6 5 11 10 11 6 0 10
-2 10 -4z m248 -41 c-3 -3 -9 2 -12 12 -6 14 -5 15 5 6 7 -7 10 -15 7 -18z
m-448 5 c0 -5 -2 -10 -4 -10 -3 0 -8 5 -11 10 -3 6 -1 10 4 10 6 0 11 -4 11
-10z m12 -41 c-27 -24 -36 -24 -20 0 7 11 16 17 20 15 4 -3 8 3 9 13 0 12 2
13 6 5 3 -8 -4 -22 -15 -33z m55 22 c0 -11 -5 -18 -9 -15 -4 3 -5 11 -1 19 7
21 12 19 10 -4z m338 -11 c3 -6 -1 -7 -9 -4 -18 7 -21 14 -7 14 6 0 13 -4 16
-10z m-261 -8 c2 -4 -5 -9 -17 -9 -17 -2 -19 0 -7 7 18 12 18 12 24 2z m33
-24 c-3 -8 -6 -5 -6 6 -1 11 2 17 5 13 3 -3 4 -12 1 -19z m-148 -20 c0 -13 -3
-17 -6 -10 -4 10 -8 10 -21 0 -12 -9 -11 -6 2 10 24 27 26 27 25 0z m51 8 c0
-2 -7 -7 -16 -10 -8 -3 -12 -2 -9 4 6 10 25 14 25 6z m334 -4 c3 -5 -1 -9 -9
-9 -8 0 -12 4 -9 9 3 4 7 8 9 8 2 0 6 -4 9 -8z m-192 -34 c-8 -8 -9 -4 -5 13
4 13 8 18 11 10 2 -7 -1 -18 -6 -23z m38 11 c0 -5 -4 -9 -8 -9 -5 0 -9 7 -9
15 0 8 4 12 9 9 4 -3 8 -9 8 -15z m60 11 c0 -5 -2 -10 -4 -10 -3 0 -8 5 -11
10 -3 6 -1 10 4 10 6 0 11 -4 11 -10z m83 -25 c-3 -9 -8 -14 -10 -11 -3 3 -2
9 2 15 9 16 15 13 8 -4z m-309 -10 c-4 -8 -8 -15 -10 -15 -2 0 -4 7 -4 15 0 8
4 15 10 15 5 0 7 -7 4 -15z m71 5 c3 -5 1 -10 -4 -10 -6 0 -11 5 -11 10 0 6 2
10 4 10 3 0 8 -4 11 -10z m-116 -13 c-2 -2 -12 -9 -21 -16 -15 -11 -18 -11
-18 1 0 7 10 14 21 15 12 1 20 1 18 0z m165 -12 c-4 -8 -8 -15 -10 -15 -2 0
-4 7 -4 15 0 8 4 15 10 15 5 0 7 -7 4 -15z m104 1 c-7 -8 -15 -12 -17 -11 -5
6 10 25 20 25 5 0 4 -6 -3 -14z m-51 -15 c0 -11 -5 -18 -9 -15 -4 3 -5 11 -1
19 7 21 12 19 10 -4z m178 9 c3 -6 -1 -7 -9 -4 -18 7 -21 14 -7 14 6 0 13 -4
16 -10z m-285 -10 c0 -5 -5 -10 -11 -10 -5 0 -7 5 -4 10 3 6 8 10 11 10 2 0 4
-4 4 -10z m208 -12 c-2 -6 -14 -15 -27 -19 -14 -6 -20 -5 -16 1 3 6 13 10 21
10 8 0 12 5 9 10 -3 6 -1 10 5 10 7 0 10 -5 8 -12z m-343 -16 c-3 -3 -11 0
-18 7 -9 10 -8 11 6 5 10 -3 15 -9 12 -12z m42 -7 c0 -8 -4 -12 -9 -9 -4 3 -8
9 -8 15 0 5 4 9 8 9 5 0 9 -7 9 -15z m50 -7 c-3 -8 -6 -5 -6 6 -1 11 2 17 5
13 3 -3 4 -12 1 -19z m77 -8 c-6 -6 -10 -2 -11 12 -2 16 1 18 10 9 7 -7 8 -14
1 -21z m27 -3 c-10 -9 -11 -8 -5 6 3 10 9 15 12 12 3 -3 0 -11 -7 -18z m229 9
c0 -2 -7 -7 -16 -10 -8 -3 -12 -2 -9 4 6 10 25 14 25 6z m-155 -16 c-3 -5 -12
-10 -18 -10 -7 0 -6 4 3 10 19 12 23 12 15 0z m-115 -15 c0 -12 -19 -12 -23 0
-4 9 -1 12 9 8 7 -3 14 -7 14 -8z m28 -48 c-7 -8 -22 -12 -33 -9 -18 5 -18 6
5 13 38 11 42 10 28 -4z m-98 -7 c0 -5 -5 -10 -11 -10 -5 0 -7 5 -4 10 3 6 8
10 11 10 2 0 4 -4 4 -10z m215 0 c13 -6 15 -9 5 -9 -8 0 -22 4 -30 9 -18 12
-2 12 25 0z m-175 -4 c0 -3 -4 -8 -10 -11 -5 -3 -10 -1 -10 4 0 6 5 11 10 11
6 0 10 -2 10 -4z m118 -20 c-7 -8 -15 -12 -17 -11 -5 6 10 25 20 25 5 0 4 -6
-3 -14z m51 -10 c8 -10 9 -16 1 -21 -6 -4 -10 -3 -9 2 4 21 -2 24 -18 12 -16
-13 -17 -12 -4 4 16 21 16 21 30 3z m84 -31 c-3 -9 -8 -14 -10 -11 -3 3 -2 9
2 15 9 16 15 13 8 -4z m-168 -16 c11 -16 1 -19 -13 -3 -7 8 -8 14 -3 14 5 0
13 -5 16 -11z m110 1 c-3 -5 -11 -10 -16 -10 -6 0 -7 5 -4 10 3 6 11 10 16 10
6 0 7 -4 4 -10z m-56 -44 c-3 -3 -11 5 -18 17 -13 21 -12 21 5 5 10 -10 16
-20 13 -22z m18 12 c-3 -8 -6 -5 -6 6 -1 11 2 17 5 13 3 -3 4 -12 1 -19z m53
-14 c0 -8 -4 -12 -10 -9 -5 3 -10 10 -10 16 0 5 5 9 10 9 6 0 10 -7 10 -16z
m45 -14 c3 -5 1 -10 -4 -10 -6 0 -11 5 -11 10 0 6 2 10 4 10 3 0 8 -4 11 -10z
m-148 -22 c-3 -8 -6 -5 -6 6 -1 11 2 17 5 13 3 -3 4 -12 1 -19z m99 -17 c-4
-5 -1 -12 4 -14 6 -3 5 -4 -2 -3 -15 3 -23 26 -8 26 6 0 9 -4 6 -9z"/>
<path d="M2308 5150 c-66 -20 -139 -84 -174 -152 l-17 -32 24 17 c13 9 47 30
74 46 28 16 55 34 60 38 6 5 31 15 58 22 26 8 47 18 47 23 0 5 4 6 10 3 5 -3
19 0 31 8 20 14 19 15 -12 26 -36 13 -62 13 -101 1z"/>
<path d="M4501 6715 c-16 -70 -9 -200 12 -261 63 -174 195 -302 395 -380 143
-57 222 -69 432 -68 163 0 198 3 295 26 129 30 207 63 258 108 40 35 46 47 22
47 -8 0 -15 -4 -15 -9 0 -4 -3 -7 -7 -6 -5 1 -33 -10 -63 -24 -160 -73 -290
-99 -491 -99 -132 1 -170 4 -255 26 -150 38 -288 110 -378 199 -119 116 -167
227 -185 421 l-7 80 -13 -60z"/>
<path d="M1530 6744 c0 -24 137 -174 160 -174 4 0 10 -7 14 -15 3 -8 10 -15
16 -15 6 0 20 -8 30 -18 30 -27 182 -105 290 -147 191 -75 490 -136 775 -160
l70 -5 -130 50 c-71 27 -134 50 -140 50 -5 0 -39 11 -75 25 -36 13 -137 45
-225 70 -400 116 -609 202 -732 303 -29 23 -53 39 -53 36z"/>
<path d="M6704 6682 c-59 -21 -148 -83 -254 -177 -148 -132 -199 -147 -411
-120 -220 29 -387 9 -499 -58 -46 -27 -35 -42 16 -21 17 7 44 15 60 18 16 2
29 5 29 6 0 1 18 4 40 8 41 7 179 7 445 1 148 -4 157 -3 200 20 24 13 72 49
105 81 33 31 97 84 143 118 94 70 160 94 261 95 84 0 142 -26 224 -102 50 -47
57 -51 44 -26 -30 58 -88 114 -149 144 -51 26 -73 31 -132 31 -41 -1 -93 -8
-122 -18z"/>
<path d="M8590 6624 c0 -8 5 -12 10 -9 6 3 10 -1 10 -9 0 -10 6 -13 16 -9 13
5 13 7 2 14 -7 5 -8 9 -3 9 11 0 -16 20 -27 20 -5 0 -8 -7 -8 -16z"/>
<path d="M8635 6580 c4 -6 11 -8 16 -5 14 9 11 15 -7 15 -8 0 -12 -5 -9 -10z"/>
<path d="M8665 6559 c-4 -6 3 -13 15 -16 13 -3 19 -11 16 -20 -3 -8 -2 -12 3
-8 5 3 11 0 13 -6 2 -7 9 -5 18 5 7 10 9 16 4 15 -21 -4 -26 2 -14 16 9 10 9
15 1 15 -6 0 -11 -6 -11 -12 -1 -8 -6 -6 -14 5 -15 20 -22 21 -31 6z"/>
<path d="M6553 6482 l-51 -47 27 -37 c16 -21 32 -34 36 -30 4 4 4 -4 0 -17 -5
-16 -4 -21 4 -17 6 4 11 2 11 -3 0 -6 7 -11 15 -11 9 0 12 -6 9 -15 -4 -8 -11
-12 -18 -9 -6 3 -4 0 5 -8 9 -7 14 -19 11 -27 -6 -18 52 23 72 50 12 18 14 18
20 4 3 -9 6 -28 6 -41 0 -14 4 -23 8 -20 5 3 6 -8 4 -25 -2 -16 0 -28 4 -27 8
3 16 -6 13 -14 -8 -28 -5 -38 13 -38 15 0 18 5 13 23 -4 14 -3 18 3 9 10 -14
11 -13 122 143 39 55 67 101 63 102 -5 2 -48 -10 -95 -26 l-87 -29 -71 79
c-39 43 -75 79 -78 79 -4 -1 -30 -22 -59 -48z"/>
<path d="M8748 6513 c-10 -2 -18 -13 -18 -23 0 -14 5 -17 22 -12 13 3 17 7 10
10 -10 3 -10 7 -1 18 6 8 10 13 8 13 -2 -1 -12 -3 -21 -6z"/>
<path d="M8750 6459 c0 -5 5 -7 10 -4 6 3 10 8 10 11 0 2 -4 4 -10 4 -5 0 -10
-5 -10 -11z"/>
<path d="M4370 6061 c0 -17 32 -42 46 -37 7 3 14 0 16 -6 2 -6 13 -8 26 -4 12
4 20 12 16 17 -3 6 -8 8 -12 5 -3 -3 -10 1 -17 10 -12 18 -75 29 -75 15z"/>
<path d="M5730 5799 c0 -4 -9 -5 -19 -2 -27 7 -231 -33 -326 -64 -248 -81
-436 -218 -508 -370 -29 -61 -32 -78 -34 -167 -1 -63 4 -117 14 -150 17 -58
67 -161 89 -183 8 -8 12 -19 9 -24 -4 -5 -1 -9 4 -9 6 0 11 -5 11 -10 0 -6 11
-21 25 -34 13 -13 22 -26 18 -29 -3 -4 1 -7 11 -7 9 0 15 -4 11 -9 -3 -5 30
-41 72 -80 188 -172 381 -280 708 -396 105 -37 213 -78 242 -91 62 -27 142
-80 161 -106 8 -10 22 -26 31 -36 10 -9 20 -23 22 -30 6 -19 87 54 143 129 53
71 58 59 15 -37 -32 -72 -135 -224 -152 -224 -6 0 -7 -3 -4 -7 8 -8 -141 -156
-193 -193 -19 -13 -40 -29 -47 -35 -6 -5 -34 -23 -62 -40 -28 -16 -51 -34 -51
-38 0 -5 -4 -6 -9 -2 -5 3 -15 0 -23 -7 -13 -12 -85 -52 -97 -54 -7 -1 -33
-12 -116 -49 -57 -26 -239 -95 -260 -99 -5 -1 -15 -5 -21 -8 -6 -4 -21 -9 -35
-12 -13 -2 -46 -12 -74 -21 -27 -9 -59 -18 -70 -20 -11 -2 -39 -10 -63 -19
-23 -8 -44 -15 -47 -16 -3 0 -6 0 -7 -1 -2 0 -12 -2 -23 -5 -11 -2 -81 -24
-155 -49 -74 -25 -146 -48 -160 -51 -13 -3 -29 -9 -35 -13 -12 -11 -288 -101
-410 -135 -131 -37 -302 -72 -445 -91 -354 -47 -401 -64 -560 -205 -25 -22
-29 -30 -15 -26 11 3 47 12 80 20 33 9 99 29 148 45 114 39 259 68 372 75 87
5 88 5 45 -8 -159 -47 -497 -214 -655 -324 -132 -92 -274 -224 -352 -327 -45
-59 -103 -179 -129 -265 -26 -85 -26 -85 -24 25 1 123 28 253 71 352 23 53 24
68 1 28 -33 -59 -89 -210 -80 -216 6 -3 2 -9 -7 -13 -9 -3 -15 -12 -12 -19 2
-6 0 -23 -5 -37 -5 -14 -10 -79 -10 -145 1 -99 5 -135 26 -205 25 -86 63 -180
72 -180 3 0 2 5 -2 12 -5 7 -3 8 5 4 7 -5 10 -14 7 -21 -2 -7 2 -16 10 -19 9
-3 12 -11 8 -18 -5 -7 -2 -9 8 -5 12 4 15 0 11 -16 -4 -22 -4 -22 11 -3 18 23
21 14 5 -16 -8 -15 -8 -19 0 -14 10 7 16 -6 12 -27 -1 -5 3 -6 9 -2 5 3 10 0
10 -7 1 -16 60 -76 60 -60 0 6 -5 14 -10 17 -13 8 6 45 23 45 9 0 9 -2 -1 -8
-7 -5 -10 -16 -6 -26 7 -19 58 -48 68 -39 3 4 6 -1 6 -11 0 -9 4 -15 9 -11 6
3 15 -4 21 -15 7 -12 18 -19 25 -16 8 3 24 -3 36 -13 20 -16 20 -18 4 -34 -9
-9 -12 -17 -7 -17 5 0 16 9 23 21 19 28 48 16 44 -18 -3 -33 -26 -48 -42 -27
-6 8 -14 11 -17 6 -7 -12 24 -28 60 -31 11 -1 14 -7 10 -17 -5 -14 -4 -15 8
-5 13 11 14 46 1 59 -2 3 1 12 7 20 10 11 9 16 -5 23 -9 6 -17 21 -17 34 0 14
-4 25 -10 25 -5 0 -10 -8 -10 -17 0 -15 -2 -15 -9 -4 -5 8 -7 20 -4 28 8 20
49 -9 45 -32 -3 -13 1 -16 13 -12 11 5 15 2 13 -10 -2 -9 3 -18 11 -21 9 -3
11 0 6 9 -7 12 -5 12 6 1 12 -11 12 -14 -1 -22 -8 -5 -10 -10 -5 -10 6 0 3 -5
-5 -10 -13 -8 -12 -10 3 -10 9 0 17 -5 17 -11 0 -5 -4 -8 -9 -5 -5 3 -11 0
-14 -7 -3 -8 1 -14 9 -14 7 0 16 8 19 18 8 24 32 31 58 17 19 -11 20 -13 5
-16 -10 -2 -18 -8 -18 -13 0 -6 -5 -7 -10 -4 -6 4 -8 11 -5 16 4 5 1 9 -5 9
-6 0 -10 -8 -8 -17 3 -17 12 -18 64 -11 22 3 8 29 -29 54 -21 14 -34 19 -31
10 3 -7 -2 -16 -10 -19 -23 -9 -20 13 6 40 l21 23 -22 0 c-12 0 -19 4 -16 10
4 6 11 7 17 4 6 -4 8 -2 5 3 -4 6 3 13 15 16 29 8 37 -1 15 -18 -13 -10 -15
-14 -5 -18 10 -4 10 -6 1 -6 -18 -1 -16 -21 2 -21 8 0 15 -7 15 -15 0 -8 5
-15 10 -15 14 0 12 23 -2 39 -11 11 -10 13 4 8 12 -4 20 2 27 21 5 15 10 20
10 12 0 -8 -3 -22 -8 -29 -6 -9 -6 -22 0 -33 8 -14 6 -18 -7 -18 -13 0 -14 -3
-4 -15 7 -8 17 -12 23 -8 6 3 7 1 3 -5 -4 -7 -3 -12 3 -12 18 0 34 -41 22 -53
-8 -8 -11 -6 -11 5 0 9 -5 20 -10 23 -7 4 -8 -3 -4 -22 9 -37 11 -39 31 -22
10 8 25 14 33 13 33 -4 60 -17 60 -30 0 -8 6 -11 18 -7 14 5 13 3 -3 -10 -11
-8 -18 -18 -15 -21 10 -9 30 10 35 33 2 12 0 19 -5 16 -5 -3 -11 -1 -15 5 -3
6 0 13 9 16 8 3 13 11 10 18 -6 17 -34 16 -34 0 0 -8 -6 -11 -15 -7 -23 8 -14
39 10 35 16 -2 17 -1 6 7 -8 5 -21 7 -29 3 -10 -3 -13 -1 -8 6 6 9 1 9 -19 0
-18 -8 -22 -15 -15 -22 8 -8 14 -7 21 4 8 11 9 9 3 -10 -9 -33 -11 -35 -29
-20 -22 18 -18 37 11 57 26 16 28 16 64 -4 24 -13 43 -17 52 -12 7 5 9 9 3 9
-5 0 1 7 14 16 19 14 25 14 32 3 12 -19 11 -27 -4 -36 -8 -4 -19 -17 -26 -28
-12 -19 -12 -19 -8 3 4 15 0 22 -9 22 -10 0 -13 -7 -9 -23 4 -13 7 -30 8 -38
2 -8 6 -20 11 -27 4 -7 2 -20 -6 -30 -12 -15 -11 -16 5 -3 12 9 17 23 14 37
-2 15 6 34 25 56 15 18 26 38 24 43 -5 15 32 17 40 3 5 -7 1 -9 -9 -5 -10 3
-17 2 -17 -3 0 -14 18 -21 25 -10 8 14 25 13 25 -2 0 -6 -3 -9 -6 -5 -10 9
-44 -26 -45 -48 -1 -17 -2 -17 -6 -3 -2 10 -11 18 -19 18 -11 0 -10 -4 4 -20
17 -20 17 -20 54 20 20 22 40 36 43 30 3 -5 -2 -13 -11 -18 -15 -8 -15 -11 2
-30 9 -12 21 -19 26 -16 13 8 9 -11 -4 -25 -7 -7 4 -5 25 5 l39 19 -32 8 c-30
8 -31 10 -26 49 5 38 4 40 -17 34 -23 -5 -47 4 -50 20 -1 5 -8 8 -14 8 -7 -1
-13 4 -13 12 0 20 -18 17 -23 -4 -4 -16 -5 -16 -6 1 0 10 -6 15 -12 12 -6 -4
-13 2 -16 14 -3 11 -9 19 -13 16 -4 -3 -11 3 -14 12 -6 15 -8 15 -16 3 -6 -9
-4 -20 4 -30 7 -8 16 -22 20 -30 4 -8 0 -6 -9 5 -17 20 -17 20 -10 -2 7 -26
-6 -30 -25 -8 -10 12 -16 13 -26 4 -8 -6 -14 -7 -14 -2 0 15 -33 12 -52 -5
-16 -14 -18 -13 -18 2 0 9 4 15 9 12 5 -3 11 1 15 9 8 22 -10 18 -35 -7 -16
-17 -20 -19 -16 -6 3 10 2 20 -3 23 -6 3 -5 16 1 32 8 21 6 29 -11 45 -11 10
-20 29 -20 41 0 18 -2 19 -10 7 -8 -13 -10 -12 -10 3 0 9 5 17 11 17 6 0 8 9
4 23 -5 17 -4 19 4 7 6 -8 11 -29 11 -47 0 -17 5 -35 12 -39 7 -4 8 -3 4 4 -4
7 -4 12 1 12 4 0 9 16 9 35 1 22 -3 35 -11 35 -7 0 -20 10 -29 22 -12 18 -14
19 -9 4 5 -14 3 -17 -7 -11 -10 6 -12 4 -7 -9 6 -14 3 -17 -10 -12 -15 6 -16
5 -5 -5 6 -7 12 -17 12 -22 0 -5 -7 -2 -15 7 -8 8 -15 20 -15 26 0 6 -4 9 -8
6 -5 -3 -9 1 -9 9 0 10 4 12 12 5 9 -7 16 -6 24 4 14 17 5 60 -11 50 -6 -4 -5
-9 3 -15 10 -6 7 -8 -8 -6 -17 1 -20 5 -13 18 5 9 6 20 2 24 -4 5 -2 5 5 1 6
-3 14 -2 18 4 3 5 -3 10 -14 10 -13 0 -19 5 -15 14 6 16 -24 49 -37 40 -5 -3
-7 -10 -3 -15 3 -5 10 -7 15 -4 10 7 10 7 12 -43 1 -22 -2 -32 -12 -32 -8 0
-11 -3 -8 -7 8 -7 -11 -33 -25 -33 -5 0 0 12 10 28 17 23 18 30 8 45 -7 9 -17
13 -21 9 -5 -4 -5 -1 0 7 7 12 10 11 22 -4 11 -16 13 -16 13 -3 0 8 -7 21 -15
28 -10 8 -12 17 -5 29 9 18 -8 25 -40 15 -13 -4 -13 -6 0 -14 12 -8 13 -11 2
-22 -11 -11 -13 -10 -10 1 5 23 -18 23 -30 -1 -6 -13 -11 -17 -11 -10 -1 6 8
21 19 32 11 11 15 22 10 25 -6 4 -10 12 -10 18 0 7 5 4 11 -5 5 -9 15 -15 22
-12 14 5 21 91 7 99 -5 3 -6 13 -3 23 6 14 4 15 -9 4 -13 -10 -17 -10 -22 3
-3 9 -2 14 3 11 5 -4 7 4 3 16 -3 12 -1 19 4 15 6 -3 16 -2 23 2 9 6 10 11 2
15 -6 4 -11 3 -11 -2 0 -5 -7 -9 -15 -9 -8 0 -15 4 -15 9 0 4 -4 8 -10 8 -5 0
-10 -7 -10 -16 0 -8 5 -12 10 -9 6 3 10 1 10 -4 0 -12 -11 -14 -34 -5 -9 3
-13 10 -10 15 3 5 -2 6 -10 3 -14 -5 -14 -8 -1 -21 18 -17 19 -29 3 -39 -8 -5
-9 -2 -5 9 3 9 2 19 -3 22 -6 4 -10 -2 -10 -12 0 -15 -2 -16 -10 -3 -7 11 -13
5 -28 -28 -10 -23 -22 -39 -25 -35 -4 3 -1 13 6 21 6 8 11 17 10 19 -2 1 -3 4
-2 6 0 1 3 15 5 31 9 54 94 215 152 288 173 216 471 424 782 544 l75 29 -165
5 -165 5 75 22 c106 31 227 49 525 78 240 23 442 54 497 74 26 10 -83 20 -232
22 -52 1 -99 4 -105 7 -11 7 137 38 418 88 262 46 398 82 569 150 428 169 747
415 894 686 l34 63 0 -90 c0 -155 -54 -292 -162 -412 -21 -24 -38 -47 -38 -53
0 -5 -5 -10 -12 -10 -6 0 -28 -18 -49 -39 -20 -22 -40 -37 -43 -34 -3 4 -6 1
-6 -6 0 -7 -4 -9 -10 -6 -5 3 -10 1 -10 -4 0 -6 -5 -11 -11 -11 -6 0 -17 -7
-25 -15 -25 -25 -7 -17 78 32 252 145 427 370 499 643 31 116 33 329 5 440
-31 122 -90 235 -160 308 -107 112 -229 179 -466 257 -330 108 -521 242 -615
429 -40 79 -43 106 -14 152 66 107 263 180 412 153 90 -16 153 -53 238 -138
97 -97 204 -251 299 -429 l18 -33 30 43 c72 104 173 177 286 204 l65 17 -60
28 c-116 55 -261 189 -399 370 -35 47 -81 98 -101 114 -20 17 -35 33 -32 38 2
4 0 7 -6 7 -6 0 -22 12 -37 28 -15 15 -23 20 -19 12 5 -8 -5 -3 -21 11 -21 18
-39 25 -66 24 -20 0 -35 2 -32 6 7 12 -27 19 -45 9 -10 -5 -22 -6 -26 -2 -9 9
-185 10 -185 1z m-2525 -4158 c1 -11 -3 -17 -8 -14 -5 3 -7 -5 -3 -18 3 -13 3
-18 0 -11 -3 6 -13 12 -22 12 -15 1 -15 2 1 11 12 7 15 17 11 37 -5 22 -4 25
7 15 7 -7 13 -22 14 -32z m45 -16 c0 -1 -6 -7 -13 -13 -10 -8 -13 -6 -13 7 0
11 6 17 13 14 7 -3 13 -6 13 -8z m-214 -47 c-11 -15 -16 -18 -16 -7 0 16 21
42 28 34 2 -2 -3 -14 -12 -27z m-75 -15 c13 -16 12 -17 -3 -4 -10 7 -18 15
-18 17 0 8 8 3 21 -13z m-86 -13 c-4 -6 -11 -8 -16 -5 -5 4 -9 1 -9 -6 0 -7
-3 -10 -6 -6 -9 9 5 27 22 27 8 0 12 -5 9 -10z m35 -10 c0 -5 -5 -10 -11 -10
-5 0 -7 5 -4 10 3 6 8 10 11 10 2 0 4 -4 4 -10z m124 -15 c-4 -8 -8 -15 -10
-15 -2 0 -4 7 -4 15 0 8 4 15 10 15 5 0 7 -7 4 -15z m151 -5 c-3 -5 -14 -10
-23 -9 -14 0 -13 2 3 9 27 11 27 11 20 0z m-231 -16 c5 -13 4 -14 -7 -6 -8 7
-17 9 -20 5 -4 -3 -7 -1 -7 5 0 18 27 14 34 -4z m23 -26 c-3 -8 -6 -5 -6 6 -1
11 2 17 5 13 3 -3 4 -12 1 -19z m188 13 c3 -5 2 -12 -3 -15 -5 -3 -9 1 -9 9 0
17 3 19 12 6z m-145 -5 c0 -3 -4 -8 -10 -11 -5 -3 -10 -1 -10 4 0 6 5 11 10
11 6 0 10 -2 10 -4z m-86 -41 c-6 -24 10 -37 18 -15 2 6 9 0 17 -12 13 -21 13
-22 -2 -10 -13 11 -16 10 -19 -5 -4 -15 -7 -13 -18 9 -7 15 -10 34 -7 42 10
25 18 18 11 -9z m130 9 c4 -10 1 -14 -6 -12 -15 5 -23 28 -10 28 5 0 13 -7 16
-16z m-31 -51 c-4 -10 -9 -11 -19 -2 -18 15 -18 15 5 15 11 0 17 -5 14 -13z
m90 -9 c-3 -8 -6 -14 -7 -12 -1 2 -7 11 -14 20 -11 14 -10 16 7 11 12 -3 17
-11 14 -19z m53 -12 c-15 -15 -15 -15 -4 10 7 15 15 23 17 17 2 -6 -4 -18 -13
-27z m41 6 c-3 -8 -6 -5 -6 6 -1 11 2 17 5 13 3 -3 4 -12 1 -19z m38 12 c-3
-5 -12 -10 -18 -10 -7 0 -6 4 3 10 19 12 23 12 15 0z m-195 -4 c0 -2 -8 -10
-17 -17 -16 -13 -17 -12 -4 4 13 16 21 21 21 13z m-94 -44 c-4 -3 -14 3 -24
13 -16 18 -16 18 1 6 15 -12 17 -11 18 5 1 18 2 18 6 1 3 -10 2 -21 -1 -25z
m281 6 c-3 -8 -6 -5 -6 6 -1 11 2 17 5 13 3 -3 4 -12 1 -19z m-41 -12 c2 -15
2 -15 -3 0 -4 14 -7 14 -14 3 -7 -11 -9 -10 -9 4 0 23 24 17 26 -7z m-53 -1
c4 -8 3 -16 -1 -19 -4 -3 -9 4 -9 15 -2 23 3 25 10 4z m-56 -11 c-16 -9 -34
-13 -40 -10 -7 2 -4 5 6 5 9 1 17 5 17 9 0 4 10 8 23 9 20 2 19 0 -6 -13z
m207 8 c3 -5 -1 -9 -9 -9 -8 0 -12 4 -9 9 3 4 7 8 9 8 2 0 6 -4 9 -8z m-54
-22 c0 -5 -2 -10 -4 -10 -3 0 -8 5 -11 10 -3 6 -1 10 4 10 6 0 11 -4 11 -10z
m45 -16 c-9 -7 -13 -19 -9 -30 5 -18 5 -18 -6 -1 -10 15 -14 16 -28 5 -12 -10
-11 -6 3 12 10 14 27 26 37 26 17 0 18 -2 3 -12z m74 -15 c13 -11 22 -22 19
-24 -3 -3 -18 6 -34 20 -16 14 -24 25 -19 25 6 -1 21 -10 34 -21z m-254 1 c4
-6 15 -8 26 -5 11 4 19 2 19 -5 0 -6 -4 -8 -10 -5 -5 3 -10 2 -10 -2 0 -17
-38 -11 -56 8 -16 18 -16 19 4 19 11 0 24 -5 27 -10z m85 0 c-8 -5 -15 -13
-15 -17 0 -4 -5 -16 -11 -27 -10 -16 -12 -16 -17 -2 -4 9 -2 15 5 13 7 -1 13
4 14 11 1 6 2 17 3 22 0 6 9 10 19 10 14 0 15 -2 2 -10z m120 -37 c-14 -9 -27
-20 -30 -25 -3 -4 -13 1 -23 12 -16 19 -15 19 15 13 22 -4 29 -3 24 5 -5 8 1
12 16 12 l22 0 -24 -17z m78 -25 c-2 -6 -10 -14 -16 -16 -7 -2 -10 2 -6 12 7
18 28 22 22 4z"/>
<path d="M9011 5207 c-13 -21 -12 -21 5 -5 10 10 16 20 13 22 -3 3 -11 -5 -18
-17z"/>
<path d="M9020 5169 c0 -5 -4 -8 -8 -5 -4 2 -8 -26 -9 -62 -3 -215 -59 -407
-180 -627 -72 -130 -114 -191 -214 -311 -139 -167 -495 -509 -702 -674 -31
-25 -59 -53 -62 -62 -4 -10 -9 -17 -13 -16 -13 4 -52 -27 -52 -40 0 -7 -4 -11
-8 -8 -5 3 -15 -4 -22 -15 -8 -10 -19 -19 -26 -19 -6 0 -16 -11 -22 -25 -7
-15 -8 -25 -2 -25 6 0 10 5 10 12 0 6 3 8 6 5 19 -18 388 205 564 341 192 148
445 389 582 552 66 79 146 197 181 267 30 57 79 218 75 243 -1 8 1 21 5 28 5
7 4 12 -3 12 -7 0 -8 6 -1 18 6 10 6 24 1 32 -5 8 -6 19 -2 24 12 21 9 51 -11
86 l-19 35 22 -20 23 -20 -12 23 c-7 12 -9 33 -6 45 4 13 3 17 -2 10 -6 -8
-14 -9 -23 -3 -10 7 -11 10 -2 10 6 0 12 4 12 10 0 5 -7 7 -15 4 -8 -4 -15 -1
-15 5 0 6 4 11 9 11 12 0 23 29 15 42 -3 5 -12 1 -21 -9 -14 -17 -14 -17 -9 0
5 15 2 17 -15 12 -17 -6 -20 -4 -13 6 5 8 10 22 11 33 3 14 -1 17 -17 13 -14
-3 -18 -1 -13 6 8 13 13 67 7 67 -2 0 -4 -5 -4 -11z m13 -84 c-3 -9 -8 -14
-10 -11 -3 3 -2 9 2 15 9 16 15 13 8 -4z m17 -82 c0 -25 -15 -12 -17 14 -1 19
1 22 8 12 5 -8 9 -20 9 -26z m25 -83 c-3 -5 -2 -10 3 -10 18 0 21 -29 4 -42
-15 -11 -15 -11 -4 3 10 13 9 19 -3 29 -13 11 -12 30 1 30 3 0 2 -4 -1 -10z"/>
<path d="M7983 5135 c0 -22 2 -30 4 -17 2 12 2 30 0 40 -3 9 -5 -1 -4 -23z"/>
<path d="M9045 5130 c3 -5 11 -10 16 -10 6 0 7 5 4 10 -3 6 -11 10 -16 10 -6
0 -7 -4 -4 -10z"/>
<path d="M4182 4162 c-17 -16 -33 -28 -35 -25 -3 2 -37 -31 -76 -73 -39 -43
-69 -79 -67 -81 5 -5 148 45 158 55 12 12 60 143 55 149 -2 2 -18 -9 -35 -25z"/>
<path d="M5632 4078 c-32 -32 -9 -51 98 -79 47 -12 107 -33 134 -46 l49 -25
-20 26 c-75 95 -221 164 -261 124z"/>
<path d="M9146 3852 c4 -15 10 -28 14 -30 5 -2 6 -12 3 -22 -6 -23 6 -26 27
-7 8 6 6 2 -4 -10 -14 -17 -18 -42 -21 -115 -6 -217 -99 -389 -310 -576 -36
-32 -50 -40 -56 -30 -5 7 -9 18 -9 23 0 6 4 3 10 -5 5 -8 12 -12 15 -8 9 9 6
508 -3 525 -7 12 -16 8 -50 -19 -23 -18 -64 -51 -91 -73 -28 -22 -48 -46 -46
-53 3 -7 0 -10 -6 -7 -8 5 -82 -46 -109 -75 -3 -3 -38 -31 -78 -63 -89 -72
-209 -191 -217 -218 -4 -10 -10 -19 -15 -19 -5 0 -7 -7 -4 -15 4 -8 1 -15 -5
-15 -6 0 -11 -7 -11 -15 0 -8 -4 -15 -10 -15 -5 0 -10 -6 -10 -12 0 -7 -16
-33 -35 -58 -19 -25 -41 -53 -48 -62 -7 -9 -29 -34 -47 -55 -19 -21 -34 -41
-33 -45 2 -5 -4 -8 -12 -8 -9 0 -12 -6 -8 -17 4 -10 2 -14 -4 -10 -14 9 -61
-28 -50 -39 4 -4 13 1 21 11 10 14 17 17 27 9 20 -16 59 -24 56 -12 -1 6 4 13
12 16 8 3 11 0 7 -7 -4 -6 -1 -11 8 -11 9 0 16 5 16 11 0 8 4 8 14 0 9 -8 16
-8 20 -2 4 5 2 12 -4 16 -5 3 -10 11 -10 18 0 6 7 1 16 -11 15 -22 44 -30 44
-13 0 4 14 7 32 5 23 -3 35 1 45 16 8 11 20 20 26 20 7 0 4 -5 -6 -11 -24 -14
-13 -27 18 -22 13 3 23 9 20 13 -3 5 3 6 13 4 21 -6 147 32 292 88 415 161
698 416 717 648 5 61 4 72 -8 65 -12 -8 -12 -6 0 8 12 15 11 20 -5 39 -11 12
-13 18 -6 14 6 -4 12 -2 12 3 0 6 -5 11 -11 11 -6 0 -9 7 -5 15 3 8 1 15 -4
15 -6 0 -10 7 -10 15 0 8 -4 15 -9 15 -5 0 -9 6 -8 13 1 34 -5 46 -30 55 -16
6 -22 11 -15 11 9 1 4 17 -15 51 -32 58 -57 75 -47 32z m114 -243 c0 -4 -7 -6
-15 -3 -8 4 -15 10 -15 15 0 4 7 6 15 3 8 -4 15 -10 15 -15z m-630 -529 c0 -5
-2 -10 -4 -10 -3 0 -8 5 -11 10 -3 6 -1 10 4 10 6 0 11 -4 11 -10z m-313 -46
c-3 -3 -12 -4 -19 -1 -8 3 -5 6 6 6 11 1 17 -2 13 -5z m31 -89 c-3 -3 -9 2
-12 12 -6 14 -5 15 5 6 7 -7 10 -15 7 -18z m-27 -22 c13 -16 12 -17 -3 -4 -10
7 -18 15 -18 17 0 8 8 3 21 -13z m-81 -83 c6 -11 8 -20 6 -20 -3 0 -10 9 -16
20 -6 11 -8 20 -6 20 3 0 10 -9 16 -20z m190 16 c0 -2 -7 -6 -15 -10 -8 -3
-15 -1 -15 4 0 6 7 10 15 10 8 0 15 -2 15 -4z"/>
<path d="M5301 3835 c-18 -20 -68 -91 -113 -158 -89 -134 -136 -198 -155 -210
-7 -4 -17 -17 -23 -27 -7 -14 16 -4 80 33 176 102 213 150 236 307 7 46 12 86
10 87 -2 2 -18 -13 -35 -32z"/>
<path d="M4347 3819 c-19 -11 -45 -18 -91 -25 -16 -2 -32 -7 -35 -10 -3 -4 5
-4 19 -1 23 6 24 5 7 -8 -11 -7 -25 -11 -33 -8 -8 3 -14 0 -14 -6 0 -6 -7 -8
-15 -5 -9 4 -15 0 -15 -9 0 -8 9 -17 20 -20 11 -3 20 0 20 6 0 7 5 5 10 -3 7
-11 10 -11 10 -2 0 7 5 10 11 6 6 -3 15 0 20 7 4 7 16 14 26 14 11 0 32 11 49
25 49 41 56 65 11 39z"/>
<path d="M4093 3772 c-26 -4 -30 -17 -7 -26 10 -4 13 -2 8 7 -6 9 -5 9 8 0 8
-7 18 -10 21 -6 4 3 7 1 7 -6 0 -19 23 -8 26 12 3 21 -12 32 -22 16 -3 -6 -9
-7 -13 -2 -3 4 -16 7 -28 5z"/>
<path d="M7601 2942 c0 -7 -5 -10 -11 -7 -5 3 -10 2 -10 -3 0 -5 -19 -17 -42
-27 -75 -33 -126 -75 -134 -109 -24 -113 -149 -265 -361 -440 -46 -37 -83 -70
-83 -72 0 -19 213 123 265 176 21 22 43 40 49 40 13 0 -1 -292 -18 -362 -7
-32 -19 -65 -26 -73 -7 -9 -10 -18 -7 -21 8 -9 153 133 203 199 138 184 179
301 187 537 3 78 -7 208 -12 162z"/>
<path d="M2950 2902 c0 -5 7 -13 16 -16 10 -4 14 -1 12 6 -5 15 -28 23 -28 10z"/>
<path d="M2247 2573 c-26 -26 42 -157 72 -138 6 3 11 -1 11 -9 0 -20 24 -21
40 -1 7 8 16 12 21 9 22 -13 6 20 -25 54 -19 20 -45 49 -58 65 -23 26 -47 34
-61 20z m94 -116 c-10 -9 -11 -8 -5 6 3 10 9 15 12 12 3 -3 0 -11 -7 -18z"/>
<path d="M8392 2423 c-17 -17 1 -45 24 -36 10 4 11 9 4 18 -5 6 -7 14 -4 17 3
3 2 8 -3 11 -4 3 -14 -2 -21 -10z"/>
<path d="M2398 2422 c-24 -5 -23 -14 3 -30 11 -7 30 -10 42 -6 19 6 20 5 8
-10 -8 -9 -11 -19 -7 -23 3 -3 6 -1 6 6 0 7 4 10 8 7 4 -2 13 -1 20 3 16 10
-57 58 -80 53z m32 -22 c0 -5 -2 -10 -4 -10 -3 0 -8 5 -11 10 -3 6 -1 10 4 10
6 0 11 -4 11 -10z"/>
<path d="M8340 2385 c0 -7 -9 -15 -20 -18 -11 -3 -20 -13 -20 -22 0 -9 4 -13
10 -10 6 4 7 -1 3 -11 -5 -14 -8 -13 -19 7 -13 23 -13 23 -14 3 0 -16 -6 -21
-22 -20 -13 0 -27 -7 -33 -19 -6 -11 -16 -21 -24 -23 -12 -2 -121 -81 -121
-87 0 -5 108 38 173 69 32 16 61 34 64 42 3 8 10 14 17 14 6 0 22 12 35 26 19
19 22 30 15 42 -13 19 -44 25 -44 7z"/>
<path d="M5457 2364 c-1 -1 -27 -5 -57 -8 -88 -8 -140 -18 -135 -26 2 -4 -7
-6 -20 -4 -14 1 -27 -2 -31 -7 -3 -5 -9 -7 -14 -4 -17 10 -280 -88 -268 -100
2 -2 36 5 76 15 115 30 198 39 332 35 118 -4 232 -23 269 -45 12 -8 8 -8 -14
-3 -16 4 -77 7 -135 7 -179 -1 -362 -55 -625 -184 -199 -98 -354 -199 -463
-304 -80 -76 -188 -214 -177 -225 3 -2 24 14 48 36 220 213 653 392 1227 507
415 83 814 47 1070 -97 93 -52 230 -186 283 -277 62 -106 82 -186 82 -322 0
-64 3 -114 8 -111 12 7 58 102 73 152 34 111 27 281 -17 381 -89 201 -304 333
-739 453 -252 69 -468 115 -536 113 -19 -1 -34 1 -34 4 0 6 -4 7 -117 13 -46
2 -84 3 -86 1z"/>
<path d="M2510 2349 c0 -5 5 -7 10 -4 6 3 10 8 10 11 0 2 -4 4 -10 4 -5 0 -10
-5 -10 -11z"/>
<path d="M6050 1837 c-3 -2 -32 -7 -65 -11 -79 -8 -196 -37 -325 -80 -117 -38
-283 -106 -277 -113 2 -2 24 1 48 6 59 13 111 23 189 36 19 3 60 10 90 16 164
29 420 32 538 6 248 -55 385 -232 342 -442 -40 -195 -168 -300 -470 -386 -190
-54 -309 -128 -368 -227 -22 -38 -27 -59 -27 -112 0 -36 6 -74 12 -85 l12 -20
6 20 c4 11 27 62 52 112 34 71 58 104 100 143 70 64 95 77 276 139 178 61 270
107 334 169 60 58 115 141 108 161 -3 9 -3 12 1 8 5 -4 16 13 26 39 15 38 16
49 6 55 -10 7 -9 9 3 9 12 0 17 9 16 33 0 17 3 44 6 60 3 15 1 27 -4 27 -6 0
-7 9 -4 21 4 12 3 31 -3 43 -19 39 -26 61 -26 81 -1 11 -7 19 -13 17 -7 -1
-13 5 -13 14 0 9 5 13 13 8 6 -3 -1 5 -18 20 -16 14 -34 25 -38 26 -5 0 -7 6
-4 13 2 6 0 20 -5 30 -7 14 -13 15 -29 6 -19 -9 -20 -8 -14 10 5 15 2 21 -10
21 -8 0 -18 7 -22 16 -3 8 -11 13 -18 10 -8 -3 -16 2 -19 11 -4 9 -14 13 -26
10 -11 -3 -18 -2 -15 2 5 10 -41 52 -49 44 -3 -3 -22 2 -43 12 -27 13 -70 19
-153 23 -63 2 -117 2 -120 -1z m501 -180 c-10 -9 -11 -8 -5 6 3 10 9 15 12 12
3 -3 0 -11 -7 -18z"/>
<path d="M3245 1780 c-9 -17 -11 -30 -5 -30 5 0 10 7 10 16 0 8 4 13 8 10 4
-2 8 4 8 15 0 26 -3 24 -21 -11z"/>
<path d="M3206 1767 c3 -10 9 -15 12 -12 3 3 0 11 -7 18 -10 9 -11 8 -5 -6z"/>
<path d="M1392 1758 c-24 -30 19 -121 48 -103 6 4 7 -1 3 -11 -5 -13 -2 -15
18 -9 16 4 20 3 10 -3 -9 -7 -10 -12 -2 -16 6 -4 11 -4 11 0 0 4 8 -3 19 -14
10 -12 20 -20 22 -17 3 2 18 -7 33 -20 16 -14 35 -25 41 -25 7 0 18 -6 24 -14
7 -8 26 -18 42 -21 19 -4 27 -11 22 -18 -4 -7 1 -6 10 2 15 12 17 11 17 -3 0
-19 11 -21 29 -3 10 10 11 9 6 -5 -7 -18 6 -23 49 -20 12 2 16 -3 13 -12 -4
-11 -1 -13 10 -9 11 4 14 2 9 -5 -7 -11 18 -17 53 -13 8 2 10 -2 5 -11 -6 -10
-4 -10 9 1 15 12 17 11 17 -4 0 -11 5 -15 15 -11 8 3 15 2 15 -3 0 -5 18 -13
40 -19 28 -7 40 -7 40 1 0 6 6 3 13 -6 7 -9 39 -21 77 -27 36 -7 84 -15 108
-19 23 -4 42 -5 42 -1 0 6 -88 32 -127 36 -12 1 -37 9 -55 17 -34 15 -127 50
-140 53 -5 1 -10 3 -13 4 -3 1 -8 3 -12 4 -11 3 -84 36 -103 47 -8 4 -34 19
-57 33 -24 13 -45 20 -48 15 -8 -12 -25 -11 -25 2 0 5 6 7 13 4 14 -7 -28 30
-98 89 -26 21 -63 63 -82 92 -33 49 -39 54 -73 54 -21 0 -42 -6 -48 -12z"/>
<path d="M3245 1700 c-3 -5 -1 -10 4 -10 6 0 11 5 11 10 0 6 -2 10 -4 10 -3 0
-8 -4 -11 -10z"/>
<path d="M2278 1313 c7 -3 16 -2 19 1 4 3 -2 6 -13 5 -11 0 -14 -3 -6 -6z"/>
<path d="M3443 1298 c2 -7 13 -12 23 -10 14 2 16 1 5 -6 -8 -6 -9 -12 -3 -16
5 -3 12 1 16 9 3 8 -3 19 -14 25 -25 13 -33 13 -27 -2z"/>
<path d="M3003 1264 c3 -3 12 -7 21 -8 9 -1 23 -11 31 -22 8 -10 14 -14 14 -9
0 19 -24 41 -48 42 -13 1 -21 0 -18 -3z"/>
<path d="M3447 1260 c6 -7 9 -18 7 -24 -3 -7 4 -12 16 -12 11 0 20 4 20 8 0
10 33 -3 42 -16 5 -8 8 -8 8 0 0 7 -9 22 -20 35 -10 13 -19 19 -20 12 0 -12
-29 -10 -53 3 -9 5 -9 4 0 -6z"/>
<path d="M3080 1221 c0 -25 6 -27 13 -6 4 8 2 17 -3 20 -6 4 -10 -3 -10 -14z"/>
<path d="M3547 1219 c-5 -20 -27 -21 -68 -4 -19 7 -52 -22 -43 -37 4 -7 14 -1
25 13 10 13 19 18 19 11 0 -7 5 -10 10 -7 6 3 14 -4 19 -17 6 -13 10 -17 10
-10 1 7 14 17 29 23 29 10 38 34 16 43 -6 2 -14 -4 -17 -15z"/>
<path d="M3130 1201 c0 -6 4 -12 8 -15 5 -3 9 1 9 9 0 8 -4 15 -9 15 -4 0 -8
-4 -8 -9z"/>
<path d="M3099 1183 c-12 -15 -12 -16 3 -10 9 3 19 1 21 -6 2 -7 7 -10 10 -7
3 3 0 13 -8 23 -12 16 -13 16 -26 0z"/>
<path d="M3196 1175 c-3 -8 -1 -15 4 -15 6 0 10 7 10 15 0 8 -2 15 -4 15 -2 0
-6 -7 -10 -15z"/>
<path d="M3565 1180 c-3 -5 1 -10 10 -10 9 0 13 5 10 10 -3 6 -8 10 -10 10 -2
0 -7 -4 -10 -10z"/>
<path d="M3535 1170 c-3 -5 -1 -10 4 -10 6 0 11 5 11 10 0 6 -2 10 -4 10 -3 0
-8 -4 -11 -10z"/>
<path d="M5045 1127 c-27 -19 -112 -47 -119 -39 -3 3 -6 1 -6 -5 0 -14 -45
-33 -69 -28 -14 3 -21 -1 -21 -13 0 -12 -3 -13 -12 -4 -13 13 -29 16 -25 5 2
-7 -8 -14 -15 -12 -24 6 -59 5 -64 -2 -3 -5 -10 -6 -16 -3 -7 5 -8 2 -3 -6 6
-10 4 -12 -9 -7 -9 4 -15 3 -12 -2 3 -5 -1 -15 -10 -22 -13 -11 -15 -10 -12 5
2 12 -4 20 -15 21 -13 3 -15 -1 -8 -12 4 -9 6 -24 4 -34 -3 -11 -1 -19 5 -19
24 0 42 13 42 31 0 10 4 19 10 19 5 0 7 -7 4 -15 -4 -9 0 -15 10 -15 9 0 16 5
16 11 0 5 5 7 10 4 25 -15 340 120 340 146 0 12 -2 11 -25 -4z m-305 -121 c-7
-7 -14 -6 -21 1 -9 9 -7 12 9 10 14 -1 18 -5 12 -11z"/>
<path d="M3802 1101 c-11 -6 -9 -10 7 -14 15 -4 19 -10 14 -23 -6 -16 -7 -16
-13 1 -5 14 -8 16 -15 6 -4 -8 -2 -17 6 -22 20 -13 41 -11 33 3 -5 8 -2 9 11
4 11 -4 25 0 37 11 18 16 19 16 12 -3 -4 -10 -11 -21 -15 -24 -4 -3 -9 -16
-10 -30 -2 -14 -8 -28 -14 -32 -17 -13 -35 -9 -35 7 0 8 -5 15 -11 15 -6 0 -8
-7 -5 -16 3 -9 6 -22 6 -29 0 -11 6 -12 30 -4 21 8 32 20 38 42 7 26 13 32 33
29 18 -1 21 0 9 7 -8 6 -11 13 -7 17 3 4 13 1 21 -5 10 -8 16 -9 21 -1 3 5 -1
10 -9 10 -9 0 -15 3 -13 8 1 4 -1 7 -4 7 -3 0 -14 6 -23 14 -14 12 -18 11 -30
-5 -16 -21 -26 -16 -30 13 -3 20 -24 27 -44 14z"/>
<path d="M5406 1098 c3 -4 -2 -8 -10 -8 -9 0 -16 -4 -16 -10 0 -18 38 -11 42
8 3 11 0 19 -8 19 -7 0 -11 -4 -8 -9z"/>
<path d="M3390 1076 c0 -8 -6 -17 -12 -19 -7 -3 -2 -6 11 -6 17 -1 21 -5 17
-17 -3 -8 -2 -12 4 -9 5 3 8 16 6 28 -3 12 -5 25 -5 30 -2 13 -21 7 -21 -7z"/>
<path d="M3675 1080 c-3 -5 -2 -10 4 -10 5 0 13 5 16 10 3 6 2 10 -4 10 -5 0
-13 -4 -16 -10z"/>
<path d="M3994 1039 c-4 -7 -3 -14 4 -17 15 -5 16 -22 2 -22 -6 0 -14 9 -18
20 -7 20 -8 20 -26 -1 -16 -19 -16 -21 -2 -16 18 7 60 -28 51 -43 -3 -5 -1
-11 5 -15 5 -3 10 -13 10 -21 0 -8 -4 -13 -9 -9 -6 3 -9 -3 -8 -12 1 -14 10
-18 39 -19 38 -1 50 9 23 20 -8 3 -15 0 -16 -7 0 -7 -6 4 -13 23 -9 23 -10 41
-4 53 5 9 6 22 3 27 -3 6 -2 10 3 10 5 0 9 7 9 15 0 10 -6 14 -15 10 -9 -3
-19 -1 -22 6 -6 8 -10 8 -16 -2z"/>
<path d="M3717 1023 c4 -10 2 -14 -5 -9 -6 3 -14 2 -17 -4 -4 -6 -15 -8 -24
-5 -12 4 -21 -2 -29 -20 -6 -14 -17 -25 -24 -25 -9 0 -8 -3 2 -10 22 -15 28
-12 32 13 4 22 9 24 40 12 13 -5 15 -2 11 17 -6 22 -5 22 20 -5 28 -29 38 -26
12 3 -14 16 -14 18 0 23 10 4 15 0 16 -11 0 -11 2 -12 6 -4 6 16 -14 42 -33
42 -8 0 -11 -6 -7 -17z"/>
<path d="M3468 1023 c6 -2 10 -8 8 -12 -3 -4 1 -8 9 -8 11 0 12 4 4 14 -6 7
-17 13 -23 12 -7 0 -6 -2 2 -6z"/>
<path d="M3842 1014 c-7 -8 -8 -14 -3 -14 10 0 25 19 20 25 -2 1 -10 -3 -17
-11z"/>
<path d="M4093 1018 c2 -7 0 -22 -6 -33 -10 -19 -11 -19 -17 5 -6 24 -7 24
-11 -7 -4 -23 -2 -33 8 -33 19 0 16 -18 -4 -23 -11 -3 -7 -5 10 -6 17 -1 26 4
25 12 -2 6 3 11 10 9 8 -1 11 2 7 7 -3 6 -13 7 -23 4 -16 -6 -16 -5 1 14 9 11
15 22 12 25 -3 3 1 8 9 11 10 4 13 -1 11 -19 -2 -19 0 -22 11 -13 16 13 0 54
-17 44 -5 -4 -9 -1 -9 4 0 6 -5 11 -11 11 -6 0 -9 -6 -6 -12z"/>
<path d="M4140 1021 c0 -14 18 -23 31 -15 8 4 7 9 -2 15 -18 11 -29 11 -29 0z"/>
<path d="M4257 1005 c3 -8 9 -12 14 -9 12 7 11 11 -5 17 -10 4 -13 1 -9 -8z"/>
<path d="M3888 985 c-4 -18 -1 -25 10 -25 12 0 12 -3 2 -15 -11 -13 -10 -14 4
-9 22 9 33 54 15 65 -21 13 -26 11 -31 -16z"/>
<path d="M4190 1001 c0 -6 5 -11 10 -11 6 0 10 -9 10 -19 0 -11 4 -22 9 -25 4
-3 6 -17 3 -32 -3 -19 -7 -23 -14 -12 -7 10 -11 10 -15 0 -7 -19 -23 -4 -16
16 6 15 5 15 -11 -1 -22 -22 -19 -26 23 -31 43 -5 60 31 36 80 -16 34 -35 53
-35 35z"/>
<path d="M4325 987 c11 -16 11 -23 -3 -47 -9 -15 -22 -26 -29 -23 -8 3 -13 -2
-13 -13 0 -16 2 -17 10 -4 8 13 10 13 10 1 0 -18 53 44 56 65 1 9 -4 18 -12
21 -8 3 -12 8 -9 12 2 4 -2 8 -10 8 -12 0 -12 -3 0 -20z"/>
<path d="M4495 999 c-4 -6 -5 -12 -2 -15 2 -3 7 2 10 11 7 17 1 20 -8 4z"/>
<path d="M4548 985 c2 -13 -1 -26 -7 -29 -16 -10 -13 -26 5 -26 8 0 12 5 9 10
-3 6 -2 10 4 10 5 0 11 -6 14 -12 3 -7 4 -3 4 10 -1 12 -5 22 -10 22 -5 0 -4
6 2 14 9 11 7 15 -7 18 -15 4 -18 1 -14 -17z"/>
<path d="M4230 985 c0 -8 7 -15 16 -15 14 0 14 3 4 15 -7 8 -14 15 -16 15 -2
0 -4 -7 -4 -15z"/>
<path d="M4377 994 c-11 -12 -8 -24 7 -24 7 0 20 8 27 18 13 15 12 16 -3 4
-11 -9 -17 -9 -20 -2 -2 6 -7 8 -11 4z"/>
<path d="M4460 992 c0 -6 -7 -9 -16 -8 -9 0 -19 -6 -21 -14 -4 -13 -3 -13 6 0
9 12 13 12 19 2 7 -10 11 -10 21 2 8 10 9 16 1 21 -5 3 -10 2 -10 -3z"/>
<path d="M4523 987 c8 -22 -16 -40 -33 -24 -9 8 -11 8 -6 0 3 -6 3 -13 -1 -16
-5 -2 -2 -2 5 -1 6 2 12 -1 12 -5 0 -5 -6 -11 -12 -14 -7 -3 -3 -4 9 -4 12 1
20 4 17 8 -2 4 3 14 11 22 18 19 19 33 3 43 -7 5 -9 2 -5 -9z"/>
<path d="M3948 971 c-9 -11 -12 -24 -7 -37 7 -18 8 -18 8 3 1 12 6 25 13 29 6
4 8 3 4 -4 -3 -6 -3 -13 2 -16 4 -2 8 4 9 14 2 27 -11 32 -29 11z"/>
<path d="M4605 980 c-3 -5 -2 -10 4 -10 5 0 13 5 16 10 3 6 2 10 -4 10 -5 0
-13 -4 -16 -10z"/>
<path d="M3773 972 c-9 -5 -6 -12 10 -21 19 -13 21 -12 10 1 -7 8 -10 18 -6
21 9 9 1 8 -14 -1z"/>
<path d="M4153 966 c-13 -16 -7 -26 15 -26 9 0 12 3 9 7 -4 3 -2 12 4 20 16
18 -12 17 -28 -1z"/>
<path d="M3667 963 c-3 -5 -1 -17 4 -28 7 -17 8 -17 8 8 1 27 -4 34 -12 20z"/>
<path d="M3696 935 c-3 -8 -1 -15 4 -15 6 0 10 4 10 9 0 5 8 12 18 14 13 4 12
5 -4 6 -12 0 -24 -6 -28 -14z"/>
<path d="M3850 936 c0 -9 5 -16 10 -16 6 0 10 4 10 9 0 6 -4 13 -10 16 -5 3
-10 -1 -10 -9z"/>
<path d="M4269 937 c7 -7 14 -8 21 -1 6 6 2 10 -12 11 -16 2 -18 -1 -9 -10z"/>
<path d="M3756 925 c-3 -8 -1 -15 4 -15 6 0 10 7 10 15 0 8 -2 15 -4 15 -2 0
-6 -7 -10 -15z"/>
<path d="M4135 929 c-9 -14 -2 -20 14 -10 8 6 9 11 3 15 -6 3 -14 1 -17 -5z"/>
<path d="M4380 935 c0 -22 17 -34 38 -28 12 3 22 9 22 13 0 5 -9 6 -21 3 -12
-4 -25 0 -30 8 -5 8 -9 10 -9 4z"/>
<path d="M3790 920 c-13 -8 -12 -10 3 -10 9 0 17 5 17 10 0 12 -1 12 -20 0z"/>
<path d="M3827 923 c-13 -12 -7 -18 19 -19 14 -1 24 -1 22 0 -2 1 -10 7 -19
14 -9 6 -19 9 -22 5z"/>
<path d="M4450 920 c0 -5 5 -10 10 -10 6 0 10 5 10 10 0 6 -4 10 -10 10 -5 0
-10 -4 -10 -10z"/>
<path d="M3880 904 c0 -8 5 -12 10 -9 6 4 8 11 5 16 -9 14 -15 11 -15 -7z"/>
<path d="M3968 913 c-10 -2 -18 -8 -18 -13 0 -12 33 -5 38 8 2 7 2 11 0 11 -1
-1 -11 -3 -20 -6z"/>
<path d="M4240 910 c0 -5 5 -10 10 -10 6 0 10 5 10 10 0 6 -4 10 -10 10 -5 0
-10 -4 -10 -10z"/>
<path d="M4336 903 c-6 -14 -5 -15 5 -6 7 7 10 15 7 18 -3 3 -9 -2 -12 -12z"/>
<path d="M3915 900 c3 -5 10 -10 16 -10 5 0 9 5 9 10 0 6 -7 10 -16 10 -8 0
-12 -4 -9 -10z"/>
<path d="M4090 901 c0 -5 5 -13 10 -16 6 -3 10 -2 10 4 0 5 -4 13 -10 16 -5 3
-10 2 -10 -4z"/>
<path d="M4120 889 c0 -5 5 -7 10 -4 6 3 10 8 10 11 0 2 -4 4 -10 4 -5 0 -10
-5 -10 -11z"/>
<path d="M0 410 l0 -100 29 0 c28 0 28 1 35 77 7 84 -7 123 -44 123 -19 0 -20
-7 -20 -100z"/>
<path d="M170 282 c0 -114 2 -131 20 -149 32 -35 56 -37 105 -8 90 52 89 127
-3 175 -13 6 -26 10 -28 7 -9 -9 17 -62 38 -78 21 -17 21 -17 -20 -43 -23 -14
-44 -26 -48 -26 -4 0 -4 45 -2 101 5 106 2 116 -43 139 -18 10 -19 6 -19 -118z"/>
</g>
</svg>
