<?xml version="1.0" standalone="no"?>
<!DOCTYPE svg PUBLIC "-//W3C//DTD SVG 20010904//EN"
 "http://www.w3.org/TR/2001/REC-SVG-20010904/DTD/svg10.dtd">
<svg version="1.0" xmlns="http://www.w3.org/2000/svg"
 width="574.000000pt" height="232.000000pt" viewBox="0 0 574.000000 232.000000"
 preserveAspectRatio="xMidYMid meet">

<g transform="translate(0.000000,232.000000) scale(0.100000,-0.100000)"
fill="#000000" stroke="none">
<path d="M970 2235 c-345 -77 -602 -266 -752 -552 -79 -150 -112 -258 -126
-415 -47 -514 262 -983 753 -1142 191 -62 469 -62 660 0 408 132 713 502 751
912 4 40 10 72 14 72 10 0 121 -282 149 -376 12 -39 21 -84 21 -100 0 -27 7
-32 80 -63 359 -150 752 -176 1320 -85 623 99 879 123 1110 105 251 -21 423
-62 599 -143 46 -21 86 -36 88 -34 2 2 -31 338 -74 747 l-78 743 -60 18 c-120
36 -236 51 -395 50 -275 -1 -482 -45 -1010 -217 -477 -155 -692 -203 -942
-212 -173 -6 -313 7 -416 39 -35 11 -65 18 -65 16 -34 -69 -63 -118 -111 -183
-64 -86 -195 -225 -212 -225 -7 0 -14 36 -17 88 -9 119 -46 245 -112 377 -138
279 -380 476 -685 561 -81 22 -119 27 -260 30 -120 3 -183 0 -230 -11z m511
-58 c177 -59 298 -130 419 -243 217 -205 330 -470 329 -769 -1 -284 -96 -525
-284 -724 -122 -128 -247 -210 -413 -271 -218 -79 -496 -79 -714 0 -337 123
-570 380 -670 735 -25 93 -35 316 -18 422 66 412 352 735 760 856 115 35 121
36 315 32 165 -2 173 -3 276 -38z m3603 -331 c7 -43 7 -44 54 -49 26 -3 49 -3
51 -1 2 2 -4 15 -13 28 -9 14 -16 29 -16 34 0 9 50 36 55 30 1 -2 17 -27 35
-55 26 -44 38 -54 73 -63 23 -6 49 -13 58 -16 13 -4 35 -71 26 -80 -1 -2 -38
6 -82 16 -44 10 -110 21 -147 25 l-68 7 24 -68 c13 -38 32 -88 41 -112 l18
-43 28 43 c16 24 36 62 45 86 9 23 19 42 23 42 3 0 19 -12 35 -26 l28 -25 -17
-47 c-9 -26 -33 -73 -52 -105 l-35 -59 29 -36 c34 -42 80 -78 89 -70 3 4 11
38 17 76 l12 70 34 -28 c32 -27 33 -30 26 -82 -22 -161 -79 -177 -198 -56
l-68 69 -67 -41 c-38 -22 -74 -40 -81 -40 -14 0 -44 66 -36 80 3 5 33 26 68
46 34 21 63 38 64 39 2 1 -13 36 -32 80 -18 43 -41 107 -51 143 l-18 65 -140
-6 c-189 -8 -188 -7 -184 -71 2 -40 6 -51 20 -50 9 1 68 5 132 9 l116 7 0 -79
c0 -193 -27 -243 -129 -243 -52 0 -59 2 -65 23 -13 49 -9 55 37 50 62 -7 75 8
83 95 l7 72 -40 0 c-22 0 -67 -3 -100 -6 l-60 -7 -6 -66 c-6 -64 -41 -198 -57
-214 -4 -5 -22 -1 -40 8 -23 12 -30 21 -25 33 50 122 49 120 48 308 l-1 181
91 12 c51 7 138 15 194 18 l103 6 -6 26 c-3 14 -8 34 -11 44 -4 14 2 17 35 17
39 0 40 -1 46 -44z m-1044 -230 c11 -24 26 -73 33 -109 l14 -65 -38 -21 -38
-22 -7 28 c-14 64 -37 139 -50 165 -14 27 -13 28 23 47 21 11 39 20 41 21 2 0
12 -20 22 -44z m304 12 c-36 -218 -91 -363 -191 -507 -24 -35 -43 -65 -41 -66
14 -15 167 -79 250 -106 57 -18 105 -34 107 -36 9 -7 -33 -83 -47 -83 -35 0
-238 76 -305 114 l-74 42 -67 -63 c-37 -34 -95 -82 -129 -106 -69 -48 -201
-127 -214 -127 -4 0 -16 14 -25 31 l-18 30 31 17 c89 49 241 155 296 205 l62
58 -67 67 c-80 80 -143 171 -172 249 -37 99 -37 106 5 126 34 16 36 16 41 -1
38 -120 130 -262 218 -334 l45 -38 55 83 c83 126 143 282 162 428 l7 49 38 0
c38 0 38 -1 33 -32z m-1827 -521 c-34 -218 -64 -397 -67 -397 -3 0 -12 21 -18
47 -7 26 -42 120 -78 210 -35 89 -64 173 -64 187 0 16 13 35 37 55 52 43 147
153 201 234 25 37 46 66 48 64 1 -1 -25 -181 -59 -400z m253 361 c30 -6 89
-13 130 -17 l75 -6 -3 -37 c-2 -25 -21 -64 -63 -125 l-60 -89 28 -49 c36 -65
40 -167 7 -212 -35 -47 -68 -58 -128 -42 -48 13 -51 16 -57 52 -6 36 -5 38 15
32 85 -28 116 -13 116 56 0 46 -13 82 -47 131 l-25 37 61 87 c34 47 60 89 56
92 -5 5 -148 32 -152 29 -1 -1 -20 -141 -42 -312 -23 -171 -45 -322 -49 -337
-7 -26 -8 -26 -43 -12 l-36 15 53 362 c30 199 54 364 54 366 0 2 12 0 27 -4
15 -3 52 -11 83 -17z m668 -30 l-3 -33 -105 -16 c-134 -21 -306 -33 -313 -22
-3 4 -3 20 0 35 5 26 6 26 111 33 59 4 143 13 187 20 129 20 127 20 123 -17z
m40 -245 l-3 -38 -75 -10 -75 -10 -7 -73 c-3 -40 -9 -130 -13 -198 l-7 -125
38 3 c36 3 40 6 54 49 15 45 16 45 49 37 32 -9 33 -11 26 -46 -16 -87 -53
-114 -155 -116 -97 -2 -96 -2 -82 221 17 257 20 233 -32 233 l-44 0 -12 -82
c-26 -182 -83 -279 -197 -334 l-55 -27 -19 24 c-22 28 -24 49 -6 49 27 0 117
72 142 113 26 46 65 181 65 229 0 28 -1 28 -60 28 l-60 0 0 35 0 35 126 0
c106 0 345 22 379 35 23 8 26 3 23 -32z m1642 12 c68 -8 157 -22 197 -31 84
-19 77 -5 92 -173 6 -63 12 -115 13 -115 2 -1 23 -9 48 -17 44 -15 45 -17 48
-61 l3 -45 -113 38 c-186 62 -275 74 -566 74 l-252 0 0 37 c0 36 1 36 48 43
l47 6 0 122 0 122 70 6 c131 10 240 9 365 -6z"/>
<path d="M1031 2057 c-4 -51 177 -260 262 -303 l48 -25 -79 79 c-43 43 -88 98
-101 122 -13 26 -21 35 -17 20 4 -22 1 -20 -32 15 -20 23 -47 54 -59 70 -12
17 -22 26 -22 22z"/>
<path d="M1220 2012 c0 -12 7 -39 15 -58 23 -57 105 -174 121 -174 8 0 14 2
14 5 0 3 -27 46 -60 94 -33 49 -66 104 -75 122 -12 28 -14 30 -15 11z"/>
<path d="M914 2010 c-34 -13 -74 -69 -74 -102 0 -38 26 -83 56 -97 13 -5 47
-13 76 -17 57 -8 48 -16 -32 -28 -25 -4 -65 -12 -90 -19 l-45 -12 53 -5 53 -5
-48 -37 c-44 -34 -124 -128 -108 -128 4 0 20 11 37 25 42 36 50 31 28 -17 -20
-45 -25 -118 -10 -153 8 -18 9 -18 9 5 2 46 18 55 24 13 9 -52 53 -117 94
-137 36 -17 105 -20 138 -6 l20 9 -20 0 c-35 2 -84 39 -115 88 -34 54 -39 39
-9 -27 l20 -44 -24 22 c-32 31 -67 98 -67 132 0 62 55 147 110 170 17 7 29 15
26 17 -10 11 -87 -40 -125 -83 -46 -53 -50 -51 -20 8 20 38 20 40 2 34 -10 -3
0 10 21 29 22 19 33 35 25 35 -8 1 4 10 25 21 27 15 35 23 26 29 -8 5 7 11 39
15 45 6 50 9 39 22 -11 14 -8 15 22 8 19 -4 58 -16 85 -27 57 -23 125 -43 174
-52 29 -5 32 -4 21 9 -14 16 -100 45 -137 45 -24 0 -75 49 -79 77 -4 24 -17
33 -70 48 l-49 15 33 -28 c18 -15 32 -30 32 -34 0 -5 -35 -8 -77 -8 -89 0
-138 22 -149 65 -6 24 11 85 25 85 3 1 20 12 36 25 32 27 32 29 -1 15z"/>
<path d="M1239 1863 c12 -24 31 -39 31 -25 0 5 -10 17 -21 28 -22 19 -22 19
-10 -3z"/>
<path d="M1359 1843 c26 -38 49 -56 33 -27 -6 11 -20 28 -33 39 l-23 20 23
-32z"/>
<path d="M1545 1810 c-15 -6 -6 -9 33 -9 82 -1 120 -31 135 -106 3 -17 5 -15
12 8 6 24 2 34 -26 63 -44 46 -108 64 -154 44z"/>
<path d="M670 1752 c-87 -43 -159 -126 -144 -165 5 -15 66 -47 89 -47 20 0 19
9 -5 45 -37 57 -18 97 74 157 69 44 64 48 -14 10z"/>
<path d="M1460 1759 c0 -41 12 -89 22 -89 11 0 1 76 -13 100 -6 11 -8 8 -9
-11z"/>
<path d="M1351 1743 c8 -10 37 -40 64 -68 28 -27 60 -63 72 -80 l22 -30 0 32
c1 22 -5 36 -19 43 -11 6 -29 28 -40 50 -20 39 -63 70 -96 70 -14 0 -15 -2 -3
-17z"/>
<path d="M1800 1752 c0 -4 10 -13 23 -21 63 -39 69 -41 32 -8 -40 36 -55 44
-55 29z"/>
<path d="M1149 1664 c70 -32 77 -34 104 -20 26 12 27 15 11 20 -21 6 -176 36
-184 35 -3 0 29 -16 69 -35z"/>
<path d="M1497 1681 c-3 -12 4 -27 19 -40 27 -24 29 -21 12 26 -14 37 -23 42
-31 14z"/>
<path d="M1260 1683 c8 -3 36 -16 62 -29 41 -21 46 -21 44 -6 -4 23 -43 42
-86 41 -19 0 -28 -3 -20 -6z"/>
<path d="M1306 1600 c15 -16 30 -20 55 -18 34 4 34 4 9 14 -14 6 -38 14 -55
18 l-30 7 21 -21z"/>
<path d="M1440 1595 c7 -8 17 -15 22 -15 6 0 5 7 -2 15 -7 8 -17 15 -22 15 -6
0 -5 -7 2 -15z"/>
<path d="M1171 1586 c3 -3 23 -15 45 -26 27 -13 33 -19 19 -20 -17 0 -17 -2
-5 -10 8 -5 25 -10 38 -10 12 0 22 -4 22 -9 0 -4 23 -11 51 -14 28 -4 63 -14
76 -22 14 -9 27 -14 31 -11 7 8 -68 86 -82 86 -5 0 3 -14 19 -30 l30 -31 -40
16 c-84 34 -94 40 -84 46 6 3 -11 12 -38 18 -26 7 -57 15 -68 18 -11 3 -17 3
-14 -1z"/>
<path d="M1620 1578 c-21 -10 -5 -13 110 -18 141 -6 163 -12 213 -58 70 -65
-12 -142 -123 -114 -38 9 -38 9 -29 -15 5 -13 9 -78 9 -144 l0 -119 -62 0 -63
0 3 121 c3 114 2 121 -15 114 -29 -12 -104 -24 -158 -24 l-50 -1 29 -19 c62
-41 66 -57 66 -271 0 -193 0 -196 -25 -233 l-26 -37 65 24 c116 44 116 44 116
150 0 58 -4 96 -12 104 -9 9 4 12 60 12 l72 0 0 -52 0 -52 40 39 c56 55 70 90
70 178 0 100 7 132 39 164 67 71 77 116 39 173 -13 19 -45 45 -73 59 -43 22
-65 26 -160 28 -71 2 -119 -2 -135 -9z"/>
<path d="M1440 1566 c0 -10 89 -66 104 -66 8 0 26 -15 40 -32 14 -18 26 -27
26 -19 0 11 3 11 15 1 26 -22 43 4 20 30 -10 11 -20 18 -23 15 -3 -2 -25 14
-51 36 -35 32 -47 37 -49 25 -4 -19 -2 -19 -46 -1 -20 8 -36 13 -36 11z"/>
<path d="M400 1505 c-21 -47 -16 -113 15 -185 25 -59 28 -79 33 -217 4 -147 5
-152 24 -142 30 16 31 5 3 -21 -23 -22 -25 -30 -25 -119 0 -107 13 -140 68
-180 l30 -21 7 163 c4 89 5 193 4 231 l-4 68 30 -38 c46 -61 221 -234 236
-234 7 0 -10 24 -39 53 -29 29 -52 56 -52 59 0 4 29 -13 64 -37 86 -60 142
-85 196 -85 92 0 180 72 180 147 0 43 -11 64 -73 136 -34 40 -46 61 -40 70 5
6 22 34 37 61 l28 48 -33 -7 c-42 -8 -62 -32 -56 -65 l5 -25 -19 24 c-10 13
-19 29 -19 36 0 7 -19 15 -47 18 -27 4 -59 10 -72 13 -22 7 -20 1 23 -54 l47
-62 -25 -25 c-21 -21 -22 -25 -8 -25 10 0 29 8 42 17 l25 16 -24 -26 c-23 -25
-60 -42 -108 -49 -21 -3 -21 -3 -5 -52 9 -27 22 -51 27 -52 6 -2 37 33 70 78
l59 81 58 -64 c53 -58 58 -67 54 -99 -12 -78 -96 -102 -198 -56 -29 13 -90 54
-136 91 l-83 69 50 18 c57 22 101 67 101 105 0 42 -48 118 -88 140 -21 12 -73
28 -117 38 -89 19 -173 55 -200 85 -10 12 -22 40 -25 63 l-7 42 -13 -30z m268
-232 c41 -31 62 -63 65 -99 3 -36 -37 -60 -115 -69 l-58 -7 0 90 c0 81 -2 91
-22 106 -22 16 -21 16 37 10 41 -4 70 -14 93 -31z"/>
<path d="M624 1175 c-10 -8 -14 -14 -9 -15 15 0 40 18 34 24 -3 3 -14 -1 -25
-9z"/>
<path d="M1484 1474 c-10 -8 -13 -12 -6 -9 8 4 26 11 40 15 22 7 23 8 6 9 -11
1 -29 -6 -40 -15z"/>
<path d="M518 1468 c19 -24 105 -58 159 -63 43 -4 40 -2 -37 23 -47 16 -96 34
-110 42 -22 12 -24 12 -12 -2z"/>
<path d="M1071 1452 c-2 -35 63 -92 105 -92 11 0 2 8 -21 19 -40 18 -68 43
-78 71 -4 10 -6 11 -6 2z"/>
<path d="M1470 1436 c0 -7 10 -21 23 -29 22 -14 24 -13 36 5 11 18 11 20 -2
15 -9 -3 -21 1 -27 9 -16 18 -30 18 -30 0z"/>
<path d="M1420 1430 c-9 -6 -10 -10 -3 -10 6 0 15 5 18 10 8 12 4 12 -15 0z"/>
<path d="M1318 1423 c12 -2 30 -2 40 0 9 3 -1 5 -23 4 -22 0 -30 -2 -17 -4z"/>
<path d="M1288 1363 c7 -3 16 -2 19 1 4 3 -2 6 -13 5 -11 0 -14 -3 -6 -6z"/>
<path d="M1213 1353 c9 -2 25 -2 35 0 9 3 1 5 -18 5 -19 0 -27 -2 -17 -5z"/>
<path d="M1213 1286 c-57 -27 -73 -48 -73 -97 0 -67 63 -129 175 -170 33 -12
68 -29 78 -38 15 -12 22 -13 38 -3 29 19 23 0 -17 -46 -21 -25 -60 -53 -97
-71 -81 -38 -307 -107 -380 -116 -31 -4 -64 -14 -74 -22 -17 -13 -17 -14 2 -9
11 2 36 7 55 11 31 5 28 2 -26 -27 -77 -42 -106 -65 -138 -113 -35 -51 -33
-86 5 -130 24 -26 39 -35 64 -35 l32 0 -21 45 c-12 25 -26 42 -33 40 -16 -6
-16 0 1 33 20 39 63 77 126 111 46 26 51 31 30 32 -33 2 33 16 115 25 43 5 54
9 40 14 -15 6 -8 9 30 15 111 17 215 68 272 133 25 28 33 33 33 19 0 -10 -7
-32 -16 -50 l-17 -32 23 20 c33 29 50 77 50 141 0 50 -4 59 -32 88 -18 18 -55
41 -83 51 -58 21 -110 57 -126 86 -16 30 14 59 61 59 42 0 78 -27 105 -80 l17
-32 22 21 c12 12 28 21 34 21 7 0 -16 29 -51 65 -63 64 -64 65 -118 65 -36 0
-71 -8 -106 -24z"/>
<path d="M1942 1125 c-19 -70 -67 -138 -155 -221 -88 -82 -86 -85 8 -18 106
75 175 163 175 223 0 58 -14 66 -28 16z"/>
<path d="M1295 970 c3 -5 14 -10 23 -10 15 0 15 2 2 10 -20 13 -33 13 -25 0z"/>
<path d="M1200 891 c-16 -24 -17 -29 -5 -25 17 7 40 43 32 50 -3 3 -15 -9 -27
-25z"/>
<path d="M1977 874 c-4 -26 -17 -50 -37 -69 l-30 -29 0 53 0 53 -41 -33 c-42
-33 -123 -128 -116 -136 10 -9 128 26 172 51 42 25 85 76 85 102 0 5 -6 18
-13 29 -13 16 -15 15 -20 -21z"/>
<path d="M378 853 c-24 -28 -38 -60 -38 -88 0 -33 24 -81 45 -88 13 -6 13 -3
-2 19 -20 32 -20 101 1 143 19 35 16 39 -6 14z"/>
<path d="M1634 714 c-22 -28 -27 -45 -25 -77 1 -23 4 -43 6 -45 8 -9 53 76 58
110 8 51 -6 55 -39 12z"/>
<path d="M1205 631 c-16 -8 -13 -10 20 -11 l40 -2 -42 -8 c-47 -10 -113 -41
-161 -77 -45 -34 -35 -39 19 -9 53 30 195 66 259 66 25 0 63 -5 85 -11 52 -15
115 -77 115 -115 1 -25 2 -27 11 -11 17 29 2 83 -32 111 -58 49 -259 92 -314
67z"/>
<path d="M1326 529 c-59 -14 -55 -17 23 -15 56 1 75 -3 98 -20 57 -42 30 -122
-46 -139 -42 -9 -91 -43 -91 -62 1 -14 5 -12 21 9 11 15 40 34 69 43 57 19 90
55 90 97 0 42 -17 68 -55 84 -38 16 -53 16 -109 3z"/>
<path d="M465 510 c3 -5 16 -15 28 -21 22 -12 22 -12 3 10 -19 21 -43 30 -31
11z"/>
<path d="M4808 1133 l-48 -4 0 -48 c0 -27 3 -63 6 -80 l7 -31 70 0 70 0 -7 46
c-3 26 -6 64 -6 85 0 34 -3 39 -22 37 -13 -1 -44 -3 -70 -5z"/>
<path d="M4978 1132 c-2 -4 -2 -41 0 -84 4 -86 6 -88 96 -88 l48 0 -7 83 c-4
45 -8 82 -9 83 -7 6 -126 12 -128 6z"/>
<path d="M5192 1034 c1 -45 6 -85 9 -88 3 -3 36 -12 73 -20 l68 -14 -6 30 c-3
17 -6 51 -6 77 0 25 -4 52 -9 59 -4 7 -36 19 -70 26 l-63 13 4 -83z"/>
</g>
</svg>
